<svg id="Layer_1" data-name="Layer 1" xmlns="http://www.w3.org/2000/svg" xmlns:xlink="http://www.w3.org/1999/xlink" viewBox="0 0 2000 2000"><defs><style>.cls-1{fill:#662d91;}.cls-2{clip-path:url(#clip-path);}.cls-3{clip-path:url(#clip-path-2);}.cls-4{fill:#39b54a;}.cls-5{fill:#231f20;}.cls-6{clip-path:url(#clip-path-3);}.cls-7{clip-path:url(#clip-path-4);}</style><clipPath id="clip-path"><path class="cls-1" d="M990.52,965.05v.47c0,.82,0,1.65,0,2.47,0,1.78-.07,3.59-.13,5.37v.29a428.94,428.94,0,0,1-3.67,45.59.42.42,0,0,1,0,.17,423.61,423.61,0,0,1-35.52,121.44L894,1114.25a359.6,359.6,0,0,0,30.23-103.44,374.22,374.22,0,0,0,3.24-43.73c0-.43,0-.88,0-1.31-.1-2.3-.25-4.58-.43-6.83C920,872.63,850.78,805,769.35,805c-87.25,0-158.23,75.63-158.23,168.61l-63.55,21.71V961c-6.07-87.11-74.51-156-157.78-156-87.25,0-158.25,75.63-158.25,168.61H168.47c0-61.58,22.81-119.55,64.24-163.24C274.57,766.27,330.35,742,389.79,742S505,766.27,546.87,810.41a232.34,232.34,0,0,1,32.71,43.85,230.11,230.11,0,0,1,32.69-43.85C654.13,766.27,709.93,742,769.35,742a212.61,212.61,0,0,1,101.33,25.65c-62.16-97-169.39-162-291.57-163.79l.92-63.08A410.22,410.22,0,0,1,741.34,576a415.33,415.33,0,0,1,130.84,91.71A422.31,422.31,0,0,1,990.52,965.05Z"/></clipPath><clipPath id="clip-path-2"><path class="cls-1" d="M548,1198.84l60.15-15.72,1.34,97.86s-2,32,27.31,44.63v70.74s-84.57,4.21-87.24-99.37Z"/></clipPath><clipPath id="clip-path-3"><path class="cls-1" d="M580,1496.46c-281.71,8.48-520.83-204.69-544.36-485.29l49.07-4.12c21.35,254.52,238.26,447.87,493.81,440.19S1039,1233.51,1045,978.17l49.23,1.16C1087.58,1260.84,861.72,1488,580,1496.46Z"/></clipPath><clipPath id="clip-path-4"><path class="cls-1" d="M1043.4,925.76c-21.35-254.52-238.24-447.87-493.78-440.19S89.18,699.3,83.17,954.64l-49.24-1.16C40.56,672,266.43,444.82,548.14,436.35S1068.94,641,1092.48,921.64Z"/></clipPath></defs><path class="cls-1" d="M990.52,965.05v.47c0,.82,0,1.65,0,2.47,0,1.78-.07,3.59-.13,5.37v.29a428.94,428.94,0,0,1-3.67,45.59.42.42,0,0,1,0,.17,423.61,423.61,0,0,1-35.52,121.44L894,1114.25a359.6,359.6,0,0,0,30.23-103.44,374.22,374.22,0,0,0,3.24-43.73c0-.43,0-.88,0-1.31-.1-2.3-.25-4.58-.43-6.83C920,872.63,850.78,805,769.35,805c-87.25,0-158.23,75.63-158.23,168.61l-63.55,21.71V961c-6.07-87.11-74.51-156-157.78-156-87.25,0-158.25,75.63-158.25,168.61H168.47c0-61.58,22.81-119.55,64.24-163.24C274.57,766.27,330.35,742,389.79,742S505,766.27,546.87,810.41a232.34,232.34,0,0,1,32.71,43.85,230.11,230.11,0,0,1,32.69-43.85C654.13,766.27,709.93,742,769.35,742a212.61,212.61,0,0,1,101.33,25.65c-62.16-97-169.39-162-291.57-163.79l.92-63.08A410.22,410.22,0,0,1,741.34,576a415.33,415.33,0,0,1,130.84,91.71A422.31,422.31,0,0,1,990.52,965.05Z"/><g class="cls-2"><rect class="cls-1" x="168.47" y="540.74" width="18.68" height="600.11"/><rect class="cls-1" x="187.15" y="540.74" width="18.68" height="600.11"/><rect class="cls-1" x="205.83" y="540.74" width="18.68" height="600.11"/><rect class="cls-1" x="224.52" y="540.74" width="18.68" height="600.11"/><rect class="cls-1" x="243.2" y="540.74" width="18.68" height="600.11"/><rect class="cls-1" x="261.88" y="540.74" width="18.68" height="600.11"/><rect class="cls-1" x="280.57" y="540.74" width="18.68" height="600.11"/><rect class="cls-1" x="299.25" y="540.74" width="18.68" height="600.11"/><rect class="cls-1" x="317.93" y="540.74" width="18.68" height="600.11"/><rect class="cls-1" x="336.62" y="540.74" width="18.68" height="600.11"/><rect class="cls-1" x="355.3" y="540.74" width="18.68" height="600.11"/><rect class="cls-1" x="373.98" y="540.74" width="18.68" height="600.11"/><rect class="cls-1" x="392.66" y="540.74" width="18.68" height="600.11"/><rect class="cls-1" x="411.35" y="540.74" width="18.68" height="600.11"/><rect class="cls-1" x="430.03" y="540.74" width="18.68" height="600.11"/><rect class="cls-1" x="448.71" y="540.74" width="18.68" height="600.11"/><rect class="cls-1" x="467.4" y="540.74" width="18.68" height="600.11"/><rect class="cls-1" x="486.08" y="540.74" width="18.68" height="600.11"/><rect class="cls-1" x="504.76" y="540.74" width="18.68" height="600.11"/><rect class="cls-1" x="523.45" y="540.74" width="18.68" height="600.11"/><rect class="cls-1" x="542.13" y="540.74" width="18.68" height="600.11"/><rect class="cls-1" x="560.81" y="540.74" width="18.68" height="600.11"/><rect class="cls-1" x="579.5" y="540.74" width="18.68" height="600.11"/><rect class="cls-1" x="598.18" y="540.74" width="18.68" height="600.11"/><rect class="cls-1" x="616.86" y="540.74" width="18.68" height="600.11"/><rect class="cls-1" x="635.55" y="540.74" width="18.68" height="600.11"/><rect class="cls-1" x="654.23" y="540.74" width="18.68" height="600.11"/><rect class="cls-1" x="672.91" y="540.74" width="18.68" height="600.11"/><rect class="cls-1" x="691.6" y="540.74" width="18.68" height="600.11"/><rect class="cls-1" x="710.28" y="540.74" width="18.68" height="600.11"/><rect class="cls-1" x="728.96" y="540.74" width="18.68" height="600.11"/><rect class="cls-1" x="747.65" y="540.74" width="18.68" height="600.11"/><rect class="cls-1" x="766.33" y="540.74" width="18.68" height="600.11"/><rect class="cls-1" x="785.01" y="540.74" width="18.68" height="600.11"/><rect class="cls-1" x="803.7" y="540.74" width="18.68" height="600.11"/><rect class="cls-1" x="822.38" y="540.74" width="18.68" height="600.11"/><rect class="cls-1" x="841.06" y="540.74" width="18.68" height="600.11"/><rect class="cls-1" x="859.75" y="540.74" width="18.68" height="600.11"/><rect class="cls-1" x="878.43" y="540.74" width="18.68" height="600.11"/><rect class="cls-1" x="897.11" y="540.74" width="18.68" height="600.11"/><rect class="cls-1" x="915.8" y="540.74" width="18.68" height="600.11"/><rect class="cls-1" x="934.48" y="540.74" width="18.68" height="600.11"/><rect class="cls-1" x="953.16" y="540.74" width="18.68" height="600.11"/><rect class="cls-1" x="971.85" y="540.74" width="18.68" height="600.11"/><rect class="cls-1" x="990.53" y="540.74" width="0.42" height="600.11"/></g><path class="cls-1" d="M548,1198.84l60.15-15.72,1.34,97.86s-2,32,27.31,44.63v70.74s-84.57,4.21-87.24-99.37Z"/><g class="cls-3"><rect class="cls-1" x="548.03" y="1183.12" width="2.02" height="217.44"/><rect class="cls-1" x="550.05" y="1183.12" width="2.02" height="217.44"/><rect class="cls-1" x="552.07" y="1183.12" width="2.02" height="217.44"/><rect class="cls-1" x="554.09" y="1183.12" width="2.02" height="217.44"/><rect class="cls-1" x="556.1" y="1183.12" width="2.02" height="217.44"/><rect class="cls-1" x="558.12" y="1183.12" width="2.02" height="217.44"/><rect class="cls-1" x="560.14" y="1183.12" width="2.02" height="217.44"/><rect class="cls-1" x="562.16" y="1183.12" width="2.02" height="217.44"/><rect class="cls-1" x="564.18" y="1183.12" width="2.02" height="217.44"/><rect class="cls-1" x="566.19" y="1183.12" width="2.02" height="217.44"/><rect class="cls-1" x="568.21" y="1183.12" width="2.02" height="217.44"/><rect class="cls-1" x="570.23" y="1183.12" width="2.02" height="217.44"/><rect class="cls-1" x="572.25" y="1183.12" width="2.02" height="217.44"/><rect class="cls-1" x="574.27" y="1183.12" width="2.02" height="217.44"/><rect class="cls-1" x="576.28" y="1183.12" width="2.02" height="217.44"/><rect class="cls-1" x="578.3" y="1183.12" width="2.02" height="217.44"/><rect class="cls-1" x="580.32" y="1183.12" width="2.02" height="217.44"/><rect class="cls-1" x="582.34" y="1183.12" width="2.02" height="217.44"/><rect class="cls-1" x="584.36" y="1183.12" width="2.02" height="217.44"/><rect class="cls-1" x="586.37" y="1183.12" width="2.02" height="217.44"/><rect class="cls-1" x="588.39" y="1183.12" width="2.02" height="217.44"/><rect class="cls-1" x="590.41" y="1183.12" width="2.02" height="217.44"/><rect class="cls-1" x="592.43" y="1183.12" width="2.02" height="217.44"/><rect class="cls-1" x="594.45" y="1183.12" width="2.02" height="217.44"/><rect class="cls-1" x="596.46" y="1183.12" width="2.02" height="217.44"/><rect class="cls-1" x="598.48" y="1183.12" width="2.02" height="217.44"/><rect class="cls-1" x="600.5" y="1183.12" width="2.02" height="217.44"/><rect class="cls-1" x="602.52" y="1183.12" width="2.02" height="217.44"/><rect class="cls-1" x="604.54" y="1183.12" width="2.02" height="217.44"/><rect class="cls-1" x="606.55" y="1183.12" width="2.02" height="217.44"/><rect class="cls-1" x="608.57" y="1183.12" width="2.02" height="217.44"/><rect class="cls-1" x="610.59" y="1183.12" width="2.02" height="217.44"/><rect class="cls-1" x="612.61" y="1183.12" width="2.02" height="217.44"/><rect class="cls-1" x="614.63" y="1183.12" width="2.02" height="217.44"/><rect class="cls-1" x="616.64" y="1183.12" width="2.02" height="217.44"/><rect class="cls-1" x="618.66" y="1183.12" width="2.02" height="217.44"/><rect class="cls-1" x="620.68" y="1183.12" width="2.02" height="217.44"/><rect class="cls-1" x="622.7" y="1183.12" width="2.02" height="217.44"/><rect class="cls-1" x="624.72" y="1183.12" width="2.02" height="217.44"/><rect class="cls-1" x="626.74" y="1183.12" width="2.02" height="217.44"/><rect class="cls-1" x="628.75" y="1183.12" width="2.02" height="217.44"/><rect class="cls-1" x="630.77" y="1183.12" width="2.02" height="217.44"/><rect class="cls-1" x="632.79" y="1183.12" width="2.02" height="217.44"/><rect class="cls-1" x="634.81" y="1183.12" width="2.02" height="217.44"/></g><path class="cls-1" d="M579.57,481.49"/><path class="cls-4" d="M538.71,1082.1l-.89-54.58,155.64-49.35.91,59.57Z"/><path class="cls-4" d="M490.48,1174.25l.7-54.59,156.6-44.83,1.34,53.35Z"/><path class="cls-5" d="M1132.71,1261.18l18.91-18.55c4.89,7.23,14,11.61,23.87,11.61,6.64,0,13.14-2.41,13.14-7.22,0-6.06-12.05-11.39-23.58-16.5-14.89-6.43-27.67-16.21-27.67-34,0-20.37,19.35-34.89,41.69-34.89,18,0,32,8.46,36.57,20.07l-18,17.38c-3.51-6.21-12.56-8.91-18.18-8.91-6.42,0-11,3.28-11,7.3,0,5.4,8.32,7.15,21,12.48,18.4,7.74,30.59,19,30.59,36.36,0,22.41-20.88,36.35-44.46,36.35C1156.22,1282.71,1138.62,1274.17,1132.71,1261.18Z"/><path class="cls-5" d="M1229.22,1222.41c0-35.33,28-62.12,64.6-62.12s64.61,26.79,64.61,62.12c0,35-28,61.69-64.68,61.69S1229.22,1257.45,1229.22,1222.41Zm97.6-.22c0-18.17-14.31-32.19-33-32.19s-33,14-33,32.19,14.31,32,33,32S1326.82,1240.3,1326.82,1222.19Z"/><path class="cls-5" d="M1450,1251.76v29.35h-76.29V1163.43h0a31.25,31.25,0,0,1,31.25,31.24v57.09Z"/><path class="cls-5" d="M1462.3,1238.33v-74.9h31.46v74.82c0,9.79,8.4,16.28,17.31,16.28s17.44-6.64,17.44-16.28v-74.82H1560v74.9c0,27-21.9,46.06-48.84,46.06S1462.3,1265.34,1462.3,1238.33Z"/><path class="cls-5" d="M1631.81,1192.63h0v88.48h-31.32v-88.48h-28.25v-29.2H1660v1A28.18,28.18,0,0,1,1631.81,1192.63Z"/><path class="cls-5" d="M1673.27,1163.43h31.24v117.68h-31.24Z"/><path class="cls-5" d="M1719.84,1222.41c0-35.33,28-62.12,64.61-62.12s64.6,26.79,64.6,62.12c0,35-28,61.69-64.68,61.69S1719.84,1257.45,1719.84,1222.41Zm97.6-.22c0-18.17-14.31-32.19-33-32.19s-33,14-33,32.19,14.31,32,33,32S1817.44,1240.3,1817.44,1222.19Z"/><path class="cls-5" d="M1966.07,1163.28v119h-9.93l-60.52-58.62v57.53h-31.24V1162.26h10.07l60.3,58.4v-57.38Z"/><polygon class="cls-4" points="1681.32 1011.34 1681.32 1101.17 1501.62 1101.17 1501.62 651.91 1591.48 651.91 1591.48 1011.34 1681.32 1011.34"/><polygon class="cls-4" points="1469.26 651.91 1469.26 741.77 1289.56 741.77 1289.56 1101.17 1199.72 1101.17 1199.72 741.77 1109.85 741.77 1109.85 651.91 1469.26 651.91"/><rect class="cls-4" x="1379.42" y="831.63" width="89.84" height="269.54"/><path class="cls-4" d="M1785.68,651.93l-89.87,0v449.27h89.87V921.47h89.83v179.71h89.87V651.93Zm89.83,179.7h-89.83V741.77h89.83Z"/><path class="cls-1" d="M580,1496.46c-281.71,8.48-520.83-204.69-544.36-485.29l49.07-4.12c21.35,254.52,238.26,447.87,493.81,440.19S1039,1233.51,1045,978.17l49.23,1.16C1087.58,1260.84,861.72,1488,580,1496.46Z"/><g class="cls-6"><path class="cls-1" d="M35.59,1008.53l15.15,503.85Z"/><rect class="cls-1" x="43.16" y="1008.06" width="24.07" height="504.08" transform="translate(-37.86 2.23) rotate(-1.72)"/><rect class="cls-1" x="67.22" y="1007.33" width="24.07" height="504.08" transform="translate(-37.83 2.95) rotate(-1.72)"/><rect class="cls-1" x="91.27" y="1006.61" width="24.07" height="504.08" transform="translate(-37.79 3.68) rotate(-1.72)"/><rect class="cls-1" x="115.33" y="1005.88" width="24.07" height="504.08" transform="translate(-37.76 4.4) rotate(-1.72)"/><rect class="cls-1" x="139.39" y="1005.16" width="24.07" height="504.08" transform="translate(-37.73 5.12) rotate(-1.72)"/><rect class="cls-1" x="163.45" y="1004.44" width="24.07" height="504.08" transform="translate(-37.7 5.84) rotate(-1.72)"/><rect class="cls-1" x="187.51" y="1003.71" width="24.07" height="504.08" transform="translate(-37.66 6.57) rotate(-1.72)"/><rect class="cls-1" x="211.56" y="1002.99" width="24.07" height="504.08" transform="translate(-37.63 7.29) rotate(-1.72)"/><rect class="cls-1" x="235.62" y="1002.27" width="24.07" height="504.08" transform="translate(-37.6 8.01) rotate(-1.72)"/><rect class="cls-1" x="259.68" y="1001.54" width="24.07" height="504.08" transform="translate(-37.57 8.74) rotate(-1.72)"/><rect class="cls-1" x="283.74" y="1000.82" width="24.07" height="504.08" transform="translate(-37.53 9.46) rotate(-1.72)"/><rect class="cls-1" x="307.8" y="1000.1" width="24.07" height="504.08" transform="translate(-37.5 10.18) rotate(-1.72)"/><rect class="cls-1" x="331.85" y="999.37" width="24.07" height="504.08" transform="translate(-37.47 10.9) rotate(-1.72)"/><rect class="cls-1" x="355.91" y="998.65" width="24.07" height="504.08" transform="translate(-37.44 11.63) rotate(-1.72)"/><rect class="cls-1" x="379.97" y="997.93" width="24.07" height="504.08" transform="translate(-37.4 12.35) rotate(-1.72)"/><rect class="cls-1" x="404.03" y="997.2" width="24.07" height="504.08" transform="translate(-37.37 13.07) rotate(-1.72)"/><rect class="cls-1" x="428.09" y="996.48" width="24.07" height="504.08" transform="translate(-37.34 13.8) rotate(-1.72)"/><rect class="cls-1" x="452.14" y="995.75" width="24.07" height="504.08" transform="translate(-37.31 14.52) rotate(-1.72)"/><rect class="cls-1" x="476.2" y="995.03" width="24.07" height="504.08" transform="translate(-37.27 15.24) rotate(-1.72)"/><rect class="cls-1" x="500.26" y="994.31" width="24.07" height="504.08" transform="translate(-37.24 15.97) rotate(-1.72)"/><rect class="cls-1" x="524.32" y="993.58" width="24.07" height="504.08" transform="translate(-37.21 16.69) rotate(-1.72)"/><rect class="cls-1" x="548.37" y="992.86" width="24.07" height="504.08" transform="translate(-37.17 17.41) rotate(-1.72)"/><rect class="cls-1" x="572.43" y="992.14" width="24.07" height="504.08" transform="translate(-37.14 18.13) rotate(-1.72)"/><rect class="cls-1" x="596.49" y="991.41" width="24.07" height="504.08" transform="translate(-37.11 18.86) rotate(-1.72)"/><rect class="cls-1" x="620.55" y="990.69" width="24.07" height="504.08" transform="translate(-37.08 19.58) rotate(-1.72)"/><rect class="cls-1" x="644.61" y="989.97" width="24.07" height="504.08" transform="translate(-37.04 20.3) rotate(-1.72)"/><rect class="cls-1" x="668.66" y="989.24" width="24.07" height="504.08" transform="translate(-37.01 21.03) rotate(-1.72)"/><rect class="cls-1" x="692.72" y="988.52" width="24.07" height="504.08" transform="translate(-36.98 21.75) rotate(-1.72)"/><rect class="cls-1" x="716.78" y="987.79" width="24.07" height="504.08" transform="translate(-36.95 22.47) rotate(-1.72)"/><rect class="cls-1" x="740.84" y="987.07" width="24.07" height="504.08" transform="translate(-36.91 23.2) rotate(-1.72)"/><rect class="cls-1" x="764.9" y="986.35" width="24.07" height="504.08" transform="translate(-36.88 23.92) rotate(-1.72)"/><rect class="cls-1" x="788.95" y="985.62" width="24.07" height="504.08" transform="translate(-36.85 24.64) rotate(-1.72)"/><rect class="cls-1" x="813.01" y="984.9" width="24.07" height="504.08" transform="translate(-36.82 25.36) rotate(-1.72)"/><rect class="cls-1" x="837.07" y="984.18" width="24.07" height="504.08" transform="translate(-36.78 26.09) rotate(-1.72)"/><rect class="cls-1" x="861.13" y="983.45" width="24.07" height="504.08" transform="translate(-36.75 26.81) rotate(-1.72)"/><rect class="cls-1" x="885.19" y="982.73" width="24.07" height="504.08" transform="translate(-36.72 27.53) rotate(-1.72)"/><rect class="cls-1" x="909.24" y="982.01" width="24.07" height="504.08" transform="translate(-36.69 28.26) rotate(-1.72)"/><rect class="cls-1" x="933.3" y="981.28" width="24.07" height="504.08" transform="translate(-36.65 28.98) rotate(-1.72)"/><rect class="cls-1" x="957.36" y="980.56" width="24.07" height="504.08" transform="translate(-36.62 29.7) rotate(-1.72)"/><rect class="cls-1" x="981.42" y="979.83" width="24.07" height="504.08" transform="translate(-36.59 30.43) rotate(-1.72)"/><rect class="cls-1" x="1005.48" y="979.11" width="24.07" height="504.08" transform="translate(-36.55 31.15) rotate(-1.72)"/><rect class="cls-1" x="1029.53" y="978.39" width="24.07" height="504.08" transform="translate(-36.52 31.87) rotate(-1.72)"/><rect class="cls-1" x="1053.59" y="977.66" width="24.07" height="504.08" transform="translate(-36.49 32.59) rotate(-1.72)"/><rect class="cls-1" x="1077.65" y="976.94" width="24.07" height="504.08" transform="translate(-36.46 33.32) rotate(-1.72)"/><path class="cls-1" d="M1109.29,1480.54l-15.16-503.85Z"/></g><path class="cls-1" d="M1043.4,925.76c-21.35-254.52-238.24-447.87-493.78-440.19S89.18,699.3,83.17,954.64l-49.24-1.16C40.56,672,266.43,444.82,548.14,436.35S1068.94,641,1092.48,921.64Z"/><g class="cls-7"><path class="cls-1" d="M18.85,452.27,34,956.12Z"/><rect class="cls-1" x="26.43" y="451.79" width="24.07" height="504.08" transform="translate(-21.14 1.47) rotate(-1.72)"/><rect class="cls-1" x="50.48" y="451.07" width="24.07" height="504.08" transform="translate(-21.11 2.2) rotate(-1.72)"/><rect class="cls-1" x="74.54" y="450.34" width="24.07" height="504.08" transform="translate(-21.08 2.92) rotate(-1.72)"/><rect class="cls-1" x="98.6" y="449.62" width="24.07" height="504.08" transform="translate(-21.05 3.64) rotate(-1.72)"/><rect class="cls-1" x="122.66" y="448.9" width="24.07" height="504.08" transform="translate(-21.01 4.37) rotate(-1.72)"/><rect class="cls-1" x="146.72" y="448.17" width="24.07" height="504.08" transform="translate(-20.98 5.09) rotate(-1.72)"/><rect class="cls-1" x="170.77" y="447.45" width="24.07" height="504.08" transform="translate(-20.95 5.81) rotate(-1.72)"/><rect class="cls-1" x="194.83" y="446.73" width="24.07" height="504.08" transform="translate(-20.92 6.54) rotate(-1.72)"/><rect class="cls-1" x="218.89" y="446" width="24.07" height="504.08" transform="translate(-20.88 7.26) rotate(-1.72)"/><rect class="cls-1" x="242.95" y="445.28" width="24.07" height="504.08" transform="translate(-20.85 7.98) rotate(-1.72)"/><rect class="cls-1" x="267.01" y="444.56" width="24.07" height="504.08" transform="translate(-20.82 8.7) rotate(-1.72)"/><rect class="cls-1" x="291.06" y="443.83" width="24.07" height="504.08" transform="translate(-20.78 9.43) rotate(-1.72)"/><rect class="cls-1" x="315.12" y="443.11" width="24.07" height="504.08" transform="translate(-20.75 10.15) rotate(-1.72)"/><rect class="cls-1" x="339.18" y="442.38" width="24.07" height="504.08" transform="translate(-20.72 10.87) rotate(-1.72)"/><rect class="cls-1" x="363.24" y="441.66" width="24.07" height="504.08" transform="translate(-20.69 11.6) rotate(-1.72)"/><rect class="cls-1" x="387.3" y="440.94" width="24.07" height="504.08" transform="translate(-20.65 12.32) rotate(-1.72)"/><rect class="cls-1" x="411.35" y="440.21" width="24.07" height="504.08" transform="translate(-20.62 13.04) rotate(-1.72)"/><rect class="cls-1" x="435.41" y="439.49" width="24.07" height="504.08" transform="translate(-20.59 13.77) rotate(-1.72)"/><rect class="cls-1" x="459.47" y="438.77" width="24.07" height="504.08" transform="translate(-20.56 14.49) rotate(-1.72)"/><rect class="cls-1" x="483.53" y="438.04" width="24.07" height="504.08" transform="translate(-20.52 15.21) rotate(-1.72)"/><rect class="cls-1" x="507.59" y="437.32" width="24.07" height="504.08" transform="translate(-20.49 15.93) rotate(-1.72)"/><rect class="cls-1" x="531.64" y="436.6" width="24.07" height="504.08" transform="translate(-20.46 16.66) rotate(-1.72)"/><rect class="cls-1" x="555.7" y="435.87" width="24.07" height="504.08" transform="translate(-20.43 17.38) rotate(-1.72)"/><rect class="cls-1" x="579.76" y="435.15" width="24.07" height="504.08" transform="translate(-20.39 18.1) rotate(-1.72)"/><rect class="cls-1" x="603.82" y="434.42" width="24.07" height="504.08" transform="translate(-20.36 18.83) rotate(-1.72)"/><rect class="cls-1" x="627.87" y="433.7" width="24.07" height="504.08" transform="translate(-20.33 19.55) rotate(-1.72)"/><rect class="cls-1" x="651.93" y="432.98" width="24.07" height="504.08" transform="translate(-20.3 20.27) rotate(-1.72)"/><rect class="cls-1" x="675.99" y="432.25" width="24.07" height="504.08" transform="translate(-20.26 21) rotate(-1.72)"/><rect class="cls-1" x="700.05" y="431.53" width="24.07" height="504.08" transform="translate(-20.23 21.72) rotate(-1.72)"/><rect class="cls-1" x="724.11" y="430.81" width="24.07" height="504.08" transform="translate(-20.2 22.44) rotate(-1.72)"/><rect class="cls-1" x="748.16" y="430.08" width="24.07" height="504.08" transform="translate(-20.16 23.16) rotate(-1.72)"/><rect class="cls-1" x="772.22" y="429.36" width="24.07" height="504.08" transform="translate(-20.13 23.89) rotate(-1.72)"/><rect class="cls-1" x="796.28" y="428.64" width="24.07" height="504.08" transform="translate(-20.1 24.61) rotate(-1.72)"/><rect class="cls-1" x="820.34" y="427.91" width="24.07" height="504.08" transform="translate(-20.07 25.33) rotate(-1.72)"/><rect class="cls-1" x="844.4" y="427.19" width="24.07" height="504.08" transform="translate(-20.03 26.06) rotate(-1.72)"/><rect class="cls-1" x="868.45" y="426.46" width="24.07" height="504.08" transform="translate(-20 26.78) rotate(-1.72)"/><rect class="cls-1" x="892.51" y="425.74" width="24.07" height="504.08" transform="translate(-19.97 27.5) rotate(-1.72)"/><rect class="cls-1" x="916.57" y="425.02" width="24.07" height="504.08" transform="translate(-19.94 28.22) rotate(-1.72)"/><rect class="cls-1" x="940.63" y="424.29" width="24.07" height="504.08" transform="translate(-19.9 28.95) rotate(-1.72)"/><rect class="cls-1" x="964.69" y="423.57" width="24.07" height="504.08" transform="translate(-19.87 29.67) rotate(-1.72)"/><rect class="cls-1" x="988.74" y="422.85" width="24.07" height="504.08" transform="translate(-19.84 30.39) rotate(-1.72)"/><rect class="cls-1" x="1012.8" y="422.12" width="24.07" height="504.08" transform="translate(-19.81 31.12) rotate(-1.72)"/><rect class="cls-1" x="1036.86" y="421.4" width="24.07" height="504.08" transform="translate(-19.77 31.84) rotate(-1.72)"/><rect class="cls-1" x="1060.92" y="420.68" width="24.07" height="504.08" transform="translate(-19.74 32.56) rotate(-1.72)"/><path class="cls-1" d="M1092.56,924.28,1077.4,420.43Z"/></g></svg>