<svg id="Layer_1" data-name="Layer 1" xmlns="http://www.w3.org/2000/svg" xmlns:xlink="http://www.w3.org/1999/xlink" viewBox="0 0 2000 2000"><defs><style>.cls-1{fill:#662d91;}.cls-2{clip-path:url(#clip-path);}.cls-3{clip-path:url(#clip-path-2);}.cls-4{fill:#39b54a;}.cls-5{fill:#231f20;}.cls-6{clip-path:url(#clip-path-3);}.cls-7{clip-path:url(#clip-path-4);}</style><clipPath id="clip-path"><path class="cls-1" d="M969.22,958.5v.25c0,.43,0,.86,0,1.29,0,.93,0,1.88-.06,2.81V963a224.85,224.85,0,0,1-1.92,23.9.11.11,0,0,1,0,.08,221.59,221.59,0,0,1-18.61,63.63l-30-13.93a188,188,0,0,0,15.84-54.2,195.22,195.22,0,0,0,1.7-22.92c0-.22,0-.46,0-.69,0-1.2-.13-2.39-.22-3.58-3.67-45.22-40-80.64-82.62-80.64-45.71,0-82.91,39.63-82.91,88.35l-33.3,11.38v-18c-3.18-45.64-39-81.74-82.67-81.74-45.72,0-82.93,39.63-82.93,88.35h-33c0-32.27,12-62.64,33.67-85.53,21.93-23.13,51.16-35.87,82.31-35.87s60.37,12.74,82.31,35.87a122.63,122.63,0,0,1,17.14,23,120.81,120.81,0,0,1,17.12-23c21.94-23.13,51.18-35.87,82.31-35.87A111.4,111.4,0,0,1,906.42,855c-32.57-50.83-88.76-84.9-152.78-85.83l.48-33.05a215,215,0,0,1,84.53,18.49,217.7,217.7,0,0,1,68.56,48.05,221.33,221.33,0,0,1,62,155.8Z"/></clipPath><clipPath id="clip-path-2"><path class="cls-1" d="M737.35,1081l31.52-8.24.7,51.28s-1,16.76,14.31,23.38v37.07s-44.31,2.21-45.71-52.07Z"/></clipPath><clipPath id="clip-path-3"><path class="cls-1" d="M754.12,1237c-147.62,4.44-272.91-107.26-285.25-254.3l25.72-2.15c11.19,133.37,124.84,234.68,258.75,230.65s241.26-112,244.41-245.79l25.8.61C1020.08,1113.49,901.73,1232.52,754.12,1237Z"/></clipPath><clipPath id="clip-path-4"><path class="cls-1" d="M996.93,937.91C985.74,804.54,872.09,703.22,738.18,707.25S496.91,819.24,493.76,953l-25.8-.61c3.48-147.51,121.83-266.53,269.45-271s272.9,107.25,285.23,254.29Z"/></clipPath></defs><path class="cls-1" d="M969.22,958.5v.25c0,.43,0,.86,0,1.29,0,.93,0,1.88-.06,2.81V963a224.85,224.85,0,0,1-1.92,23.9.11.11,0,0,1,0,.08,221.59,221.59,0,0,1-18.61,63.63l-30-13.93a188,188,0,0,0,15.84-54.2,195.22,195.22,0,0,0,1.7-22.92c0-.22,0-.46,0-.69,0-1.2-.13-2.39-.22-3.58-3.67-45.22-40-80.64-82.62-80.64-45.71,0-82.91,39.63-82.91,88.35l-33.3,11.38v-18c-3.18-45.64-39-81.74-82.67-81.74-45.72,0-82.93,39.63-82.93,88.35h-33c0-32.27,12-62.64,33.67-85.53,21.93-23.13,51.16-35.87,82.31-35.87s60.37,12.74,82.31,35.87a122.63,122.63,0,0,1,17.14,23,120.81,120.81,0,0,1,17.12-23c21.94-23.13,51.18-35.87,82.31-35.87A111.4,111.4,0,0,1,906.42,855c-32.57-50.83-88.76-84.9-152.78-85.83l.48-33.05a215,215,0,0,1,84.53,18.49,217.7,217.7,0,0,1,68.56,48.05,221.33,221.33,0,0,1,62,155.8Z"/><g class="cls-2"><rect class="cls-1" x="538.46" y="736.16" width="9.79" height="314.46"/><rect class="cls-1" x="548.25" y="736.16" width="9.79" height="314.46"/><rect class="cls-1" x="558.04" y="736.16" width="9.79" height="314.46"/><rect class="cls-1" x="567.83" y="736.16" width="9.79" height="314.46"/><rect class="cls-1" x="577.62" y="736.16" width="9.79" height="314.46"/><rect class="cls-1" x="587.41" y="736.16" width="9.79" height="314.46"/><rect class="cls-1" x="597.2" y="736.16" width="9.79" height="314.46"/><rect class="cls-1" x="606.99" y="736.16" width="9.79" height="314.46"/><rect class="cls-1" x="616.78" y="736.16" width="9.79" height="314.46"/><rect class="cls-1" x="626.57" y="736.16" width="9.79" height="314.46"/><rect class="cls-1" x="636.36" y="736.16" width="9.79" height="314.46"/><rect class="cls-1" x="646.15" y="736.16" width="9.79" height="314.46"/><rect class="cls-1" x="655.94" y="736.16" width="9.79" height="314.46"/><rect class="cls-1" x="665.73" y="736.16" width="9.79" height="314.46"/><rect class="cls-1" x="675.52" y="736.16" width="9.79" height="314.46"/><rect class="cls-1" x="685.31" y="736.16" width="9.79" height="314.46"/><rect class="cls-1" x="695.1" y="736.16" width="9.79" height="314.46"/><rect class="cls-1" x="704.89" y="736.16" width="9.79" height="314.46"/><rect class="cls-1" x="714.68" y="736.16" width="9.79" height="314.46"/><rect class="cls-1" x="724.47" y="736.16" width="9.79" height="314.46"/><rect class="cls-1" x="734.26" y="736.16" width="9.79" height="314.46"/><rect class="cls-1" x="744.05" y="736.16" width="9.79" height="314.46"/><rect class="cls-1" x="753.84" y="736.16" width="9.79" height="314.46"/><rect class="cls-1" x="763.63" y="736.16" width="9.79" height="314.46"/><rect class="cls-1" x="773.42" y="736.16" width="9.79" height="314.46"/><rect class="cls-1" x="783.21" y="736.16" width="9.79" height="314.46"/><rect class="cls-1" x="793" y="736.16" width="9.79" height="314.46"/><rect class="cls-1" x="802.79" y="736.16" width="9.79" height="314.46"/><rect class="cls-1" x="812.58" y="736.16" width="9.79" height="314.46"/><rect class="cls-1" x="822.37" y="736.16" width="9.79" height="314.46"/><rect class="cls-1" x="832.16" y="736.16" width="9.79" height="314.46"/><rect class="cls-1" x="841.95" y="736.16" width="9.79" height="314.46"/><rect class="cls-1" x="851.74" y="736.16" width="9.79" height="314.46"/><rect class="cls-1" x="861.53" y="736.16" width="9.79" height="314.46"/><rect class="cls-1" x="871.32" y="736.16" width="9.79" height="314.46"/><rect class="cls-1" x="881.11" y="736.16" width="9.79" height="314.46"/><rect class="cls-1" x="890.9" y="736.16" width="9.79" height="314.46"/><rect class="cls-1" x="900.69" y="736.16" width="9.79" height="314.46"/><rect class="cls-1" x="910.48" y="736.16" width="9.79" height="314.46"/><rect class="cls-1" x="920.27" y="736.16" width="9.79" height="314.46"/><rect class="cls-1" x="930.06" y="736.16" width="9.79" height="314.46"/><rect class="cls-1" x="939.85" y="736.16" width="9.79" height="314.46"/><rect class="cls-1" x="949.64" y="736.16" width="9.79" height="314.46"/><rect class="cls-1" x="959.43" y="736.16" width="9.79" height="314.46"/><rect class="cls-1" x="969.22" y="736.16" width="0.22" height="314.46"/></g><path class="cls-1" d="M737.35,1081l31.52-8.24.7,51.28s-1,16.76,14.31,23.38v37.07s-44.31,2.21-45.71-52.07Z"/><g class="cls-3"><rect class="cls-1" x="737.35" y="1072.77" width="1.06" height="113.94"/><rect class="cls-1" x="738.41" y="1072.77" width="1.06" height="113.94"/><rect class="cls-1" x="739.47" y="1072.77" width="1.06" height="113.94"/><rect class="cls-1" x="740.52" y="1072.77" width="1.06" height="113.94"/><rect class="cls-1" x="741.58" y="1072.77" width="1.06" height="113.94"/><rect class="cls-1" x="742.64" y="1072.77" width="1.06" height="113.94"/><rect class="cls-1" x="743.7" y="1072.77" width="1.06" height="113.94"/><rect class="cls-1" x="744.75" y="1072.77" width="1.06" height="113.94"/><rect class="cls-1" x="745.81" y="1072.77" width="1.06" height="113.94"/><rect class="cls-1" x="746.87" y="1072.77" width="1.06" height="113.94"/><rect class="cls-1" x="747.93" y="1072.77" width="1.06" height="113.94"/><rect class="cls-1" x="748.98" y="1072.77" width="1.06" height="113.94"/><rect class="cls-1" x="750.04" y="1072.77" width="1.06" height="113.94"/><rect class="cls-1" x="751.1" y="1072.77" width="1.06" height="113.94"/><rect class="cls-1" x="752.16" y="1072.77" width="1.06" height="113.94"/><rect class="cls-1" x="753.21" y="1072.77" width="1.06" height="113.94"/><rect class="cls-1" x="754.27" y="1072.77" width="1.06" height="113.94"/><rect class="cls-1" x="755.33" y="1072.77" width="1.06" height="113.94"/><rect class="cls-1" x="756.39" y="1072.77" width="1.06" height="113.94"/><rect class="cls-1" x="757.44" y="1072.77" width="1.06" height="113.94"/><rect class="cls-1" x="758.5" y="1072.77" width="1.06" height="113.94"/><rect class="cls-1" x="759.56" y="1072.77" width="1.06" height="113.94"/><rect class="cls-1" x="760.62" y="1072.77" width="1.06" height="113.94"/><rect class="cls-1" x="761.67" y="1072.77" width="1.06" height="113.94"/><rect class="cls-1" x="762.73" y="1072.77" width="1.06" height="113.94"/><rect class="cls-1" x="763.79" y="1072.77" width="1.06" height="113.94"/><rect class="cls-1" x="764.85" y="1072.77" width="1.06" height="113.94"/><rect class="cls-1" x="765.9" y="1072.77" width="1.06" height="113.94"/><rect class="cls-1" x="766.96" y="1072.77" width="1.06" height="113.94"/><rect class="cls-1" x="768.02" y="1072.77" width="1.06" height="113.94"/><rect class="cls-1" x="769.08" y="1072.77" width="1.06" height="113.94"/><rect class="cls-1" x="770.13" y="1072.77" width="1.06" height="113.94"/><rect class="cls-1" x="771.19" y="1072.77" width="1.06" height="113.94"/><rect class="cls-1" x="772.25" y="1072.77" width="1.06" height="113.94"/><rect class="cls-1" x="773.31" y="1072.77" width="1.06" height="113.94"/><rect class="cls-1" x="774.36" y="1072.77" width="1.06" height="113.94"/><rect class="cls-1" x="775.42" y="1072.77" width="1.06" height="113.94"/><rect class="cls-1" x="776.48" y="1072.77" width="1.06" height="113.94"/><rect class="cls-1" x="777.54" y="1072.77" width="1.06" height="113.94"/><rect class="cls-1" x="778.59" y="1072.77" width="1.06" height="113.94"/><rect class="cls-1" x="779.65" y="1072.77" width="1.06" height="113.94"/><rect class="cls-1" x="780.71" y="1072.77" width="1.06" height="113.94"/><rect class="cls-1" x="781.77" y="1072.77" width="1.06" height="113.94"/><rect class="cls-1" x="782.82" y="1072.77" width="1.06" height="113.94"/></g><path class="cls-1" d="M753.88,705.11"/><path class="cls-4" d="M732.47,1019.83l-.47-28.6,81.56-25.86.48,31.21Z"/><path class="cls-4" d="M707.2,1068.12l.36-28.61L789.62,1016l.7,28Z"/><path class="cls-5" d="M1043.73,1113.67l9.9-9.72c2.57,3.79,7.35,6.08,12.51,6.08,3.48,0,6.89-1.26,6.89-3.78,0-3.18-6.31-6-12.36-8.65-7.8-3.36-14.5-8.49-14.5-17.79,0-10.67,10.14-18.28,21.85-18.28,9.41,0,16.75,4.44,19.16,10.52l-9.45,9.1c-1.83-3.25-6.58-4.66-9.52-4.66-3.37,0-5.78,1.72-5.78,3.82,0,2.83,4.36,3.75,11,6.54,9.64,4.06,16,10,16,19.05,0,11.75-10.94,19-23.3,19C1056,1125,1046.82,1120.48,1043.73,1113.67Z"/><path class="cls-5" d="M1094.29,1093.36c0-18.52,14.69-32.56,33.86-32.56s33.85,14,33.85,32.56c0,18.36-14.69,32.32-33.89,32.32S1094.29,1111.72,1094.29,1093.36Zm51.15-.12c0-9.52-7.5-16.87-17.29-16.87s-17.29,7.35-17.29,16.87,7.5,16.79,17.29,16.79S1145.44,1102.73,1145.44,1093.24Z"/><path class="cls-5" d="M1210,1108.73v15.38h-40v-61.66h0a16.37,16.37,0,0,1,16.37,16.37v29.91Z"/><path class="cls-5" d="M1216.43,1101.7v-39.25h16.49v39.21c0,5.12,4.4,8.53,9.06,8.53s9.15-3.48,9.15-8.53v-39.21h16.48v39.25c0,14.15-11.47,24.13-25.59,24.13S1216.43,1115.85,1216.43,1101.7Z"/><path class="cls-5" d="M1305.25,1077.75h0v46.36h-16.41v-46.36H1274v-15.3h46v.53A14.77,14.77,0,0,1,1305.25,1077.75Z"/><path class="cls-5" d="M1327,1062.45h16.37v61.66H1327Z"/><path class="cls-5" d="M1351.38,1093.36c0-18.52,14.69-32.56,33.86-32.56s33.85,14,33.85,32.56c0,18.36-14.69,32.32-33.89,32.32S1351.38,1111.72,1351.38,1093.36Zm51.15-.12c0-9.52-7.5-16.87-17.29-16.87s-17.29,7.35-17.29,16.87,7.49,16.79,17.29,16.79S1402.53,1102.73,1402.53,1093.24Z"/><path class="cls-5" d="M1480.41,1062.37v62.35h-5.2L1443.49,1094v30.14h-16.37v-62.31h5.28l31.6,30.6v-30.07Z"/><polygon class="cls-4" points="1331.2 982.75 1331.2 1029.83 1237.04 1029.83 1237.04 794.41 1284.12 794.41 1284.12 982.75 1331.2 982.75"/><polygon class="cls-4" points="1220.08 794.41 1220.08 841.5 1125.91 841.5 1125.91 1029.83 1078.84 1029.83 1078.84 841.5 1031.75 841.5 1031.75 794.41 1220.08 794.41"/><rect class="cls-4" x="1173" y="888.59" width="47.08" height="141.24"/><path class="cls-4" d="M1385.88,794.42h-47.09v235.42h47.09V935.66H1433v94.17h47.09V794.42ZM1433,888.59h-47.08V841.5H1433Z"/><path class="cls-1" d="M754.12,1237c-147.62,4.44-272.91-107.26-285.25-254.3l25.72-2.15c11.19,133.37,124.84,234.68,258.75,230.65s241.26-112,244.41-245.79l25.8.61C1020.08,1113.49,901.73,1232.52,754.12,1237Z"/><g class="cls-6"><path class="cls-1" d="M468.83,981.28l7.94,264Z"/><rect class="cls-1" x="472.8" y="981.03" width="12.61" height="264.14" transform="translate(-33.25 14.91) rotate(-1.72)"/><rect class="cls-1" x="485.4" y="980.65" width="12.61" height="264.14" transform="translate(-33.23 15.29) rotate(-1.72)"/><rect class="cls-1" x="498.01" y="980.27" width="12.61" height="264.14" transform="translate(-33.21 15.67) rotate(-1.72)"/><rect class="cls-1" x="510.62" y="979.89" width="12.61" height="264.14" transform="translate(-33.2 16.04) rotate(-1.72)"/><rect class="cls-1" x="523.22" y="979.52" width="12.61" height="264.14" transform="translate(-33.18 16.42) rotate(-1.72)"/><rect class="cls-1" x="535.83" y="979.14" width="12.61" height="264.14" transform="translate(-33.16 16.8) rotate(-1.72)"/><rect class="cls-1" x="548.44" y="978.76" width="12.61" height="264.14" transform="translate(-33.15 17.18) rotate(-1.72)"/><rect class="cls-1" x="561.04" y="978.38" width="12.61" height="264.14" transform="translate(-33.13 17.56) rotate(-1.72)"/><rect class="cls-1" x="573.65" y="978" width="12.61" height="264.14" transform="translate(-33.11 17.94) rotate(-1.72)"/><rect class="cls-1" x="586.26" y="977.62" width="12.61" height="264.14" transform="translate(-33.1 18.32) rotate(-1.72)"/><rect class="cls-1" x="598.86" y="977.24" width="12.61" height="264.14" transform="translate(-33.08 18.7) rotate(-1.72)"/><rect class="cls-1" x="611.47" y="976.86" width="12.61" height="264.14" transform="translate(-33.06 19.07) rotate(-1.72)"/><rect class="cls-1" x="624.07" y="976.48" width="12.61" height="264.14" transform="translate(-33.04 19.45) rotate(-1.72)"/><rect class="cls-1" x="636.68" y="976.1" width="12.61" height="264.14" transform="translate(-33.03 19.83) rotate(-1.72)"/><rect class="cls-1" x="649.29" y="975.72" width="12.61" height="264.14" transform="translate(-33.01 20.21) rotate(-1.72)"/><rect class="cls-1" x="661.89" y="975.34" width="12.61" height="264.14" transform="translate(-32.99 20.59) rotate(-1.72)"/><rect class="cls-1" x="674.5" y="974.97" width="12.61" height="264.14" transform="translate(-32.98 20.97) rotate(-1.72)"/><rect class="cls-1" x="687.11" y="974.59" width="12.61" height="264.14" transform="translate(-32.96 21.35) rotate(-1.72)"/><rect class="cls-1" x="699.71" y="974.21" width="12.61" height="264.14" transform="translate(-32.94 21.73) rotate(-1.72)"/><rect class="cls-1" x="712.32" y="973.83" width="12.61" height="264.14" transform="translate(-32.92 22.11) rotate(-1.72)"/><rect class="cls-1" x="724.93" y="973.45" width="12.61" height="264.14" transform="translate(-32.91 22.48) rotate(-1.72)"/><rect class="cls-1" x="737.53" y="973.07" width="12.61" height="264.14" transform="translate(-32.89 22.86) rotate(-1.72)"/><rect class="cls-1" x="750.14" y="972.69" width="12.61" height="264.14" transform="translate(-32.87 23.24) rotate(-1.72)"/><rect class="cls-1" x="762.75" y="972.31" width="12.61" height="264.14" transform="translate(-32.86 23.62) rotate(-1.72)"/><rect class="cls-1" x="775.35" y="971.93" width="12.61" height="264.14" transform="translate(-32.84 24) rotate(-1.72)"/><rect class="cls-1" x="787.96" y="971.55" width="12.61" height="264.14" transform="translate(-32.82 24.38) rotate(-1.72)"/><rect class="cls-1" x="800.56" y="971.17" width="12.61" height="264.14" transform="translate(-32.8 24.76) rotate(-1.72)"/><rect class="cls-1" x="813.17" y="970.79" width="12.61" height="264.14" transform="translate(-32.79 25.14) rotate(-1.72)"/><rect class="cls-1" x="825.78" y="970.42" width="12.61" height="264.14" transform="translate(-32.77 25.52) rotate(-1.72)"/><rect class="cls-1" x="838.38" y="970.04" width="12.61" height="264.14" transform="translate(-32.75 25.89) rotate(-1.72)"/><rect class="cls-1" x="850.99" y="969.66" width="12.61" height="264.14" transform="translate(-32.74 26.27) rotate(-1.72)"/><rect class="cls-1" x="863.6" y="969.28" width="12.61" height="264.14" transform="translate(-32.72 26.65) rotate(-1.72)"/><rect class="cls-1" x="876.2" y="968.9" width="12.61" height="264.14" transform="translate(-32.7 27.03) rotate(-1.72)"/><rect class="cls-1" x="888.81" y="968.52" width="12.61" height="264.14" transform="translate(-32.68 27.41) rotate(-1.72)"/><rect class="cls-1" x="901.42" y="968.14" width="12.61" height="264.14" transform="translate(-32.67 27.79) rotate(-1.72)"/><rect class="cls-1" x="914.02" y="967.76" width="12.61" height="264.14" transform="translate(-32.65 28.17) rotate(-1.72)"/><rect class="cls-1" x="926.63" y="967.38" width="12.61" height="264.14" transform="translate(-32.63 28.55) rotate(-1.72)"/><rect class="cls-1" x="939.23" y="967" width="12.61" height="264.14" transform="translate(-32.62 28.92) rotate(-1.72)"/><rect class="cls-1" x="951.84" y="966.62" width="12.61" height="264.14" transform="translate(-32.6 29.3) rotate(-1.72)"/><rect class="cls-1" x="964.45" y="966.24" width="12.61" height="264.14" transform="translate(-32.58 29.68) rotate(-1.72)"/><rect class="cls-1" x="977.05" y="965.86" width="12.61" height="264.14" transform="translate(-32.57 30.06) rotate(-1.72)"/><rect class="cls-1" x="989.66" y="965.49" width="12.61" height="264.14" transform="translate(-32.55 30.44) rotate(-1.72)"/><rect class="cls-1" x="1002.27" y="965.11" width="12.61" height="264.14" transform="translate(-32.53 30.82) rotate(-1.72)"/><rect class="cls-1" x="1014.87" y="964.73" width="12.61" height="264.14" transform="translate(-32.51 31.2) rotate(-1.72)"/><path class="cls-1" d="M1031.45,1228.62l-7.94-264Z"/></g><path class="cls-1" d="M996.93,937.91C985.74,804.54,872.09,703.22,738.18,707.25S496.91,819.24,493.76,953l-25.8-.61c3.48-147.51,121.83-266.53,269.45-271s272.9,107.25,285.23,254.29Z"/><g class="cls-7"><path class="cls-1" d="M460.06,689.8l7.94,264Z"/><rect class="cls-1" x="464.03" y="689.55" width="12.61" height="264.14" transform="translate(-24.49 14.51) rotate(-1.72)"/><rect class="cls-1" x="476.64" y="689.17" width="12.61" height="264.14" transform="translate(-24.47 14.89) rotate(-1.72)"/><rect class="cls-1" x="489.24" y="688.79" width="12.61" height="264.14" transform="translate(-24.46 15.27) rotate(-1.72)"/><rect class="cls-1" x="501.85" y="688.41" width="12.61" height="264.14" transform="translate(-24.44 15.65) rotate(-1.72)"/><rect class="cls-1" x="514.46" y="688.03" width="12.61" height="264.14" transform="translate(-24.42 16.03) rotate(-1.72)"/><rect class="cls-1" x="527.06" y="687.65" width="12.61" height="264.14" transform="translate(-24.4 16.41) rotate(-1.72)"/><rect class="cls-1" x="539.67" y="687.27" width="12.61" height="264.14" transform="translate(-24.39 16.79) rotate(-1.72)"/><rect class="cls-1" x="552.28" y="686.89" width="12.61" height="264.14" transform="translate(-24.37 17.16) rotate(-1.72)"/><rect class="cls-1" x="564.88" y="686.51" width="12.61" height="264.14" transform="translate(-24.35 17.54) rotate(-1.72)"/><rect class="cls-1" x="577.49" y="686.14" width="12.61" height="264.14" transform="translate(-24.34 17.92) rotate(-1.72)"/><rect class="cls-1" x="590.09" y="685.76" width="12.61" height="264.14" transform="translate(-24.32 18.3) rotate(-1.72)"/><rect class="cls-1" x="602.7" y="685.38" width="12.61" height="264.14" transform="translate(-24.3 18.68) rotate(-1.72)"/><rect class="cls-1" x="615.31" y="685" width="12.61" height="264.14" transform="translate(-24.28 19.06) rotate(-1.72)"/><rect class="cls-1" x="627.91" y="684.62" width="12.61" height="264.14" transform="translate(-24.27 19.44) rotate(-1.72)"/><rect class="cls-1" x="640.52" y="684.24" width="12.61" height="264.14" transform="translate(-24.25 19.82) rotate(-1.72)"/><rect class="cls-1" x="653.13" y="683.86" width="12.61" height="264.14" transform="translate(-24.23 20.19) rotate(-1.72)"/><rect class="cls-1" x="665.73" y="683.48" width="12.61" height="264.14" transform="translate(-24.22 20.57) rotate(-1.72)"/><rect class="cls-1" x="678.34" y="683.1" width="12.61" height="264.14" transform="translate(-24.2 20.95) rotate(-1.72)"/><rect class="cls-1" x="690.95" y="682.72" width="12.61" height="264.14" transform="translate(-24.18 21.33) rotate(-1.72)"/><rect class="cls-1" x="703.55" y="682.34" width="12.61" height="264.14" transform="translate(-24.16 21.71) rotate(-1.72)"/><rect class="cls-1" x="716.16" y="681.96" width="12.61" height="264.14" transform="translate(-24.15 22.09) rotate(-1.72)"/><rect class="cls-1" x="728.76" y="681.59" width="12.61" height="264.14" transform="translate(-24.13 22.47) rotate(-1.72)"/><rect class="cls-1" x="741.37" y="681.21" width="12.61" height="264.14" transform="translate(-24.11 22.85) rotate(-1.72)"/><rect class="cls-1" x="753.98" y="680.83" width="12.61" height="264.14" transform="translate(-24.1 23.23) rotate(-1.72)"/><rect class="cls-1" x="766.58" y="680.45" width="12.61" height="264.14" transform="translate(-24.08 23.6) rotate(-1.72)"/><rect class="cls-1" x="779.19" y="680.07" width="12.61" height="264.14" transform="translate(-24.06 23.98) rotate(-1.72)"/><rect class="cls-1" x="791.8" y="679.69" width="12.61" height="264.14" transform="translate(-24.04 24.36) rotate(-1.72)"/><rect class="cls-1" x="804.4" y="679.31" width="12.61" height="264.14" transform="translate(-24.03 24.74) rotate(-1.72)"/><rect class="cls-1" x="817.01" y="678.93" width="12.61" height="264.14" transform="translate(-24.01 25.12) rotate(-1.72)"/><rect class="cls-1" x="829.62" y="678.55" width="12.61" height="264.14" transform="translate(-23.99 25.5) rotate(-1.72)"/><rect class="cls-1" x="842.22" y="678.17" width="12.61" height="264.14" transform="translate(-23.98 25.88) rotate(-1.72)"/><rect class="cls-1" x="854.83" y="677.79" width="12.61" height="264.14" transform="translate(-23.96 26.26) rotate(-1.72)"/><rect class="cls-1" x="867.44" y="677.41" width="12.61" height="264.14" transform="translate(-23.94 26.64) rotate(-1.72)"/><rect class="cls-1" x="880.04" y="677.04" width="12.61" height="264.14" transform="translate(-23.93 27.01) rotate(-1.72)"/><rect class="cls-1" x="892.65" y="676.66" width="12.61" height="264.14" transform="translate(-23.91 27.39) rotate(-1.72)"/><rect class="cls-1" x="905.25" y="676.28" width="12.61" height="264.14" transform="translate(-23.89 27.77) rotate(-1.72)"/><rect class="cls-1" x="917.86" y="675.9" width="12.61" height="264.14" transform="translate(-23.87 28.15) rotate(-1.72)"/><rect class="cls-1" x="930.47" y="675.52" width="12.61" height="264.14" transform="translate(-23.86 28.53) rotate(-1.72)"/><rect class="cls-1" x="943.07" y="675.14" width="12.61" height="264.14" transform="translate(-23.84 28.91) rotate(-1.72)"/><rect class="cls-1" x="955.68" y="674.76" width="12.61" height="264.14" transform="translate(-23.82 29.29) rotate(-1.72)"/><rect class="cls-1" x="968.29" y="674.38" width="12.61" height="264.14" transform="translate(-23.81 29.67) rotate(-1.72)"/><rect class="cls-1" x="980.89" y="674" width="12.61" height="264.14" transform="translate(-23.79 30.04) rotate(-1.72)"/><rect class="cls-1" x="993.5" y="673.62" width="12.61" height="264.14" transform="translate(-23.77 30.42) rotate(-1.72)"/><rect class="cls-1" x="1006.11" y="673.24" width="12.61" height="264.14" transform="translate(-23.75 30.8) rotate(-1.72)"/><path class="cls-1" d="M1022.69,937.13l-8-264Z"/></g></svg>