<svg id="Layer_1" data-name="Layer 1" xmlns="http://www.w3.org/2000/svg" xmlns:xlink="http://www.w3.org/1999/xlink" viewBox="0 0 2000 2000"><defs><style>.cls-1{fill:#662d91;}.cls-2{clip-path:url(#clip-path);}.cls-3{clip-path:url(#clip-path-2);}.cls-4{fill:#39b54a;}.cls-5{clip-path:url(#clip-path-3);}.cls-6{clip-path:url(#clip-path-4);}</style><clipPath id="clip-path"><path class="cls-1" d="M1739.46,993.6v.82c0,1.43,0,2.86,0,4.28,0,3.11-.11,6.25-.22,9.35v.5a745.58,745.58,0,0,1-6.38,79.29.61.61,0,0,1,0,.28A736.42,736.42,0,0,1,1671,1299.29L1571.54,1253a624.58,624.58,0,0,0,52.56-179.87,644.82,644.82,0,0,0,5.64-76c0-.75,0-1.53,0-2.28q-.27-6-.75-11.88c-12.17-150.08-132.56-267.61-274.14-267.61-151.72,0-275.14,131.52-275.14,293.19L969.24,1046.3V986.61C958.68,835.14,839.68,715.36,694.88,715.36c-151.72,0-275.17,131.52-275.17,293.19H310c0-107.08,39.68-207.88,111.72-283.85,72.79-76.75,169.77-119,273.14-119S895.24,648,968,724.7A404.41,404.41,0,0,1,1024.9,801a400.42,400.42,0,0,1,56.84-76.26c72.79-76.75,169.81-119,273.15-119a369.82,369.82,0,0,1,176.19,44.6c-108.08-168.66-294.55-281.74-507-284.81l1.61-109.68a713.18,713.18,0,0,1,280.49,61.37,721.89,721.89,0,0,1,227.51,159.46,734.27,734.27,0,0,1,205.77,517Z"/></clipPath><clipPath id="clip-path-2"><path class="cls-1" d="M970,1400.14l104.58-27.34L1077,1543s-3.47,55.65,47.48,77.61v123s-147.06,7.32-151.69-172.8Z"/></clipPath><clipPath id="clip-path-3"><path class="cls-1" d="M1025.67,1917.66C535.82,1932.39,120,1561.72,79.1,1073.79l85.34-7.15c37.12,442.57,414.29,778.79,858.66,765.42s800.61-371.64,811.07-815.65l85.61,2C1908.25,1507.94,1515.51,1902.92,1025.67,1917.66Z"/></clipPath><clipPath id="clip-path-4"><path class="cls-1" d="M1831.43,925.27C1794.3,482.7,1417.14,146.48,972.8,159.85S172.15,531.49,161.7,975.5l-85.62-2C87.61,484,480.37,89,970.22,74.25s905.61,355.94,946.54,843.86Z"/></clipPath></defs><path class="cls-1" d="M1739.46,993.6v.82c0,1.43,0,2.86,0,4.28,0,3.11-.11,6.25-.22,9.35v.5a745.58,745.58,0,0,1-6.38,79.29.61.61,0,0,1,0,.28A736.42,736.42,0,0,1,1671,1299.29L1571.54,1253a624.58,624.58,0,0,0,52.56-179.87,644.82,644.82,0,0,0,5.64-76c0-.75,0-1.53,0-2.28q-.27-6-.75-11.88c-12.17-150.08-132.56-267.61-274.14-267.61-151.72,0-275.14,131.52-275.14,293.19L969.24,1046.3V986.61C958.68,835.14,839.68,715.36,694.88,715.36c-151.72,0-275.17,131.52-275.17,293.19H310c0-107.08,39.68-207.88,111.72-283.85,72.79-76.75,169.77-119,273.14-119S895.24,648,968,724.7A404.41,404.41,0,0,1,1024.9,801a400.42,400.42,0,0,1,56.84-76.26c72.79-76.75,169.81-119,273.15-119a369.82,369.82,0,0,1,176.19,44.6c-108.08-168.66-294.55-281.74-507-284.81l1.61-109.68a713.18,713.18,0,0,1,280.49,61.37,721.89,721.89,0,0,1,227.51,159.46,734.27,734.27,0,0,1,205.77,517Z"/><g class="cls-2"><rect class="cls-1" x="310.02" y="255.78" width="32.49" height="1043.51"/><rect class="cls-1" x="342.51" y="255.78" width="32.49" height="1043.51"/><rect class="cls-1" x="375" y="255.78" width="32.49" height="1043.51"/><rect class="cls-1" x="407.48" y="255.78" width="32.49" height="1043.51"/><rect class="cls-1" x="439.97" y="255.78" width="32.49" height="1043.51"/><rect class="cls-1" x="472.46" y="255.78" width="32.49" height="1043.51"/><rect class="cls-1" x="504.95" y="255.78" width="32.49" height="1043.51"/><rect class="cls-1" x="537.44" y="255.78" width="32.49" height="1043.51"/><rect class="cls-1" x="569.92" y="255.78" width="32.49" height="1043.51"/><rect class="cls-1" x="602.41" y="255.78" width="32.49" height="1043.51"/><rect class="cls-1" x="634.9" y="255.78" width="32.49" height="1043.51"/><rect class="cls-1" x="667.39" y="255.78" width="32.49" height="1043.51"/><rect class="cls-1" x="699.88" y="255.78" width="32.49" height="1043.51"/><rect class="cls-1" x="732.36" y="255.78" width="32.49" height="1043.51"/><rect class="cls-1" x="764.85" y="255.78" width="32.49" height="1043.51"/><rect class="cls-1" x="797.34" y="255.78" width="32.49" height="1043.51"/><rect class="cls-1" x="829.83" y="255.78" width="32.49" height="1043.51"/><rect class="cls-1" x="862.31" y="255.78" width="32.49" height="1043.51"/><rect class="cls-1" x="894.8" y="255.78" width="32.49" height="1043.51"/><rect class="cls-1" x="927.29" y="255.78" width="32.49" height="1043.51"/><rect class="cls-1" x="959.78" y="255.78" width="32.49" height="1043.51"/><rect class="cls-1" x="992.27" y="255.78" width="32.49" height="1043.51"/><rect class="cls-1" x="1024.75" y="255.78" width="32.49" height="1043.51"/><rect class="cls-1" x="1057.24" y="255.78" width="32.49" height="1043.51"/><rect class="cls-1" x="1089.73" y="255.78" width="32.49" height="1043.51"/><rect class="cls-1" x="1122.22" y="255.78" width="32.49" height="1043.51"/><rect class="cls-1" x="1154.7" y="255.78" width="32.49" height="1043.51"/><rect class="cls-1" x="1187.19" y="255.78" width="32.49" height="1043.51"/><rect class="cls-1" x="1219.68" y="255.78" width="32.49" height="1043.51"/><rect class="cls-1" x="1252.17" y="255.78" width="32.49" height="1043.51"/><rect class="cls-1" x="1284.66" y="255.78" width="32.49" height="1043.51"/><rect class="cls-1" x="1317.14" y="255.78" width="32.49" height="1043.51"/><rect class="cls-1" x="1349.63" y="255.78" width="32.49" height="1043.51"/><rect class="cls-1" x="1382.12" y="255.78" width="32.49" height="1043.51"/><rect class="cls-1" x="1414.61" y="255.78" width="32.49" height="1043.51"/><rect class="cls-1" x="1447.09" y="255.78" width="32.49" height="1043.51"/><rect class="cls-1" x="1479.58" y="255.78" width="32.49" height="1043.51"/><rect class="cls-1" x="1512.07" y="255.78" width="32.49" height="1043.51"/><rect class="cls-1" x="1544.56" y="255.78" width="32.49" height="1043.51"/><rect class="cls-1" x="1577.05" y="255.78" width="32.49" height="1043.51"/><rect class="cls-1" x="1609.53" y="255.78" width="32.49" height="1043.51"/><rect class="cls-1" x="1642.02" y="255.78" width="32.49" height="1043.51"/><rect class="cls-1" x="1674.51" y="255.78" width="32.49" height="1043.51"/><rect class="cls-1" x="1707" y="255.78" width="32.49" height="1043.51"/><rect class="cls-1" x="1739.48" y="255.78" width="0.73" height="1043.51"/></g><path class="cls-1" d="M970,1400.14l104.58-27.34L1077,1543s-3.47,55.65,47.48,77.61v123s-147.06,7.32-151.69-172.8Z"/><g class="cls-3"><rect class="cls-1" x="970.04" y="1372.8" width="3.51" height="378.1"/><rect class="cls-1" x="973.55" y="1372.8" width="3.51" height="378.1"/><rect class="cls-1" x="977.06" y="1372.8" width="3.51" height="378.1"/><rect class="cls-1" x="980.56" y="1372.8" width="3.51" height="378.1"/><rect class="cls-1" x="984.07" y="1372.8" width="3.51" height="378.1"/><rect class="cls-1" x="987.58" y="1372.8" width="3.51" height="378.1"/><rect class="cls-1" x="991.09" y="1372.8" width="3.51" height="378.1"/><rect class="cls-1" x="994.6" y="1372.8" width="3.51" height="378.1"/><rect class="cls-1" x="998.11" y="1372.8" width="3.51" height="378.1"/><rect class="cls-1" x="1001.62" y="1372.8" width="3.51" height="378.1"/><rect class="cls-1" x="1005.13" y="1372.8" width="3.51" height="378.1"/><rect class="cls-1" x="1008.64" y="1372.8" width="3.51" height="378.1"/><rect class="cls-1" x="1012.15" y="1372.8" width="3.51" height="378.1"/><rect class="cls-1" x="1015.66" y="1372.8" width="3.51" height="378.1"/><rect class="cls-1" x="1019.16" y="1372.8" width="3.51" height="378.1"/><rect class="cls-1" x="1022.67" y="1372.8" width="3.51" height="378.1"/><rect class="cls-1" x="1026.18" y="1372.8" width="3.51" height="378.1"/><rect class="cls-1" x="1029.69" y="1372.8" width="3.51" height="378.1"/><rect class="cls-1" x="1033.2" y="1372.8" width="3.51" height="378.1"/><rect class="cls-1" x="1036.71" y="1372.8" width="3.51" height="378.1"/><rect class="cls-1" x="1040.22" y="1372.8" width="3.51" height="378.1"/><rect class="cls-1" x="1043.73" y="1372.8" width="3.51" height="378.1"/><rect class="cls-1" x="1047.24" y="1372.8" width="3.51" height="378.1"/><rect class="cls-1" x="1050.75" y="1372.8" width="3.51" height="378.1"/><rect class="cls-1" x="1054.26" y="1372.8" width="3.51" height="378.1"/><rect class="cls-1" x="1057.77" y="1372.8" width="3.51" height="378.1"/><rect class="cls-1" x="1061.27" y="1372.8" width="3.51" height="378.1"/><rect class="cls-1" x="1064.78" y="1372.8" width="3.51" height="378.1"/><rect class="cls-1" x="1068.29" y="1372.8" width="3.51" height="378.1"/><rect class="cls-1" x="1071.8" y="1372.8" width="3.51" height="378.1"/><rect class="cls-1" x="1075.31" y="1372.8" width="3.51" height="378.1"/><rect class="cls-1" x="1078.82" y="1372.8" width="3.51" height="378.1"/><rect class="cls-1" x="1082.33" y="1372.8" width="3.51" height="378.1"/><rect class="cls-1" x="1085.84" y="1372.8" width="3.51" height="378.1"/><rect class="cls-1" x="1089.35" y="1372.8" width="3.51" height="378.1"/><rect class="cls-1" x="1092.86" y="1372.8" width="3.51" height="378.1"/><rect class="cls-1" x="1096.37" y="1372.8" width="3.51" height="378.1"/><rect class="cls-1" x="1099.88" y="1372.8" width="3.51" height="378.1"/><rect class="cls-1" x="1103.38" y="1372.8" width="3.51" height="378.1"/><rect class="cls-1" x="1106.89" y="1372.8" width="3.51" height="378.1"/><rect class="cls-1" x="1110.4" y="1372.8" width="3.51" height="378.1"/><rect class="cls-1" x="1113.91" y="1372.8" width="3.51" height="378.1"/><rect class="cls-1" x="1117.42" y="1372.8" width="3.51" height="378.1"/><rect class="cls-1" x="1120.93" y="1372.8" width="3.51" height="378.1"/></g><path class="cls-1" d="M1024.88,152.75"/><path class="cls-4" d="M953.84,1197.14l-1.56-94.92,270.63-85.81,1.6,103.58Z"/><path class="cls-4" d="M870,1357.37l1.21-94.92,272.3-78,2.34,92.76Z"/><path class="cls-1" d="M1025.67,1917.66C535.82,1932.39,120,1561.72,79.1,1073.79l85.34-7.15c37.12,442.57,414.29,778.79,858.66,765.42s800.61-371.64,811.07-815.65l85.61,2C1908.25,1507.94,1515.51,1902.92,1025.67,1917.66Z"/><g class="cls-5"><path class="cls-1" d="M79,1069.21l26.35,876.13Z"/><rect class="cls-1" x="92.13" y="1068.38" width="41.85" height="876.53" transform="translate(-45.25 4.08) rotate(-1.72)"/><rect class="cls-1" x="133.96" y="1067.12" width="41.85" height="876.53" transform="translate(-45.19 5.34) rotate(-1.72)"/><rect class="cls-1" x="175.8" y="1065.86" width="41.85" height="876.53" transform="translate(-45.13 6.59) rotate(-1.72)"/><rect class="cls-1" x="217.63" y="1064.6" width="41.85" height="876.53" transform="translate(-45.08 7.85) rotate(-1.72)"/><rect class="cls-1" x="259.46" y="1063.35" width="41.85" height="876.53" transform="translate(-45.02 9.11) rotate(-1.72)"/><rect class="cls-1" x="301.3" y="1062.09" width="41.85" height="876.53" transform="translate(-44.96 10.37) rotate(-1.72)"/><rect class="cls-1" x="343.13" y="1060.83" width="41.85" height="876.53" transform="translate(-44.91 11.62) rotate(-1.72)"/><rect class="cls-1" x="384.96" y="1059.57" width="41.85" height="876.53" transform="translate(-44.85 12.88) rotate(-1.72)"/><rect class="cls-1" x="426.8" y="1058.31" width="41.85" height="876.53" transform="translate(-44.79 14.14) rotate(-1.72)"/><rect class="cls-1" x="468.63" y="1057.06" width="41.85" height="876.53" transform="translate(-44.74 15.39) rotate(-1.72)"/><rect class="cls-1" x="510.46" y="1055.8" width="41.85" height="876.53" transform="translate(-44.68 16.65) rotate(-1.72)"/><rect class="cls-1" x="552.3" y="1054.54" width="41.85" height="876.53" transform="translate(-44.62 17.91) rotate(-1.72)"/><rect class="cls-1" x="594.13" y="1053.28" width="41.85" height="876.53" transform="translate(-44.57 19.17) rotate(-1.72)"/><rect class="cls-1" x="635.97" y="1052.02" width="41.85" height="876.53" transform="translate(-44.51 20.42) rotate(-1.72)"/><rect class="cls-1" x="677.8" y="1050.76" width="41.85" height="876.53" transform="translate(-44.45 21.68) rotate(-1.72)"/><rect class="cls-1" x="719.63" y="1049.51" width="41.85" height="876.53" transform="translate(-44.4 22.94) rotate(-1.72)"/><rect class="cls-1" x="761.47" y="1048.25" width="41.85" height="876.53" transform="translate(-44.34 24.19) rotate(-1.72)"/><rect class="cls-1" x="803.3" y="1046.99" width="41.85" height="876.53" transform="translate(-44.28 25.45) rotate(-1.72)"/><rect class="cls-1" x="845.13" y="1045.73" width="41.85" height="876.53" transform="translate(-44.23 26.71) rotate(-1.72)"/><rect class="cls-1" x="886.97" y="1044.47" width="41.85" height="876.53" transform="translate(-44.17 27.97) rotate(-1.72)"/><rect class="cls-1" x="928.8" y="1043.21" width="41.85" height="876.53" transform="translate(-44.11 29.22) rotate(-1.72)"/><rect class="cls-1" x="970.64" y="1041.96" width="41.85" height="876.53" transform="translate(-44.05 30.48) rotate(-1.72)"/><rect class="cls-1" x="1012.47" y="1040.7" width="41.85" height="876.53" transform="translate(-44 31.74) rotate(-1.72)"/><rect class="cls-1" x="1054.3" y="1039.44" width="41.85" height="876.53" transform="translate(-43.94 33) rotate(-1.72)"/><rect class="cls-1" x="1096.14" y="1038.18" width="41.85" height="876.53" transform="translate(-43.88 34.25) rotate(-1.72)"/><rect class="cls-1" x="1137.97" y="1036.92" width="41.85" height="876.53" transform="translate(-43.83 35.51) rotate(-1.72)"/><rect class="cls-1" x="1179.8" y="1035.66" width="41.85" height="876.53" transform="translate(-43.77 36.77) rotate(-1.72)"/><rect class="cls-1" x="1221.64" y="1034.41" width="41.85" height="876.53" transform="translate(-43.71 38.02) rotate(-1.72)"/><rect class="cls-1" x="1263.47" y="1033.15" width="41.85" height="876.53" transform="translate(-43.66 39.28) rotate(-1.72)"/><rect class="cls-1" x="1305.3" y="1031.89" width="41.85" height="876.53" transform="translate(-43.6 40.54) rotate(-1.72)"/><rect class="cls-1" x="1347.14" y="1030.63" width="41.85" height="876.53" transform="translate(-43.54 41.8) rotate(-1.72)"/><rect class="cls-1" x="1388.97" y="1029.37" width="41.85" height="876.53" transform="translate(-43.49 43.05) rotate(-1.72)"/><rect class="cls-1" x="1430.81" y="1028.11" width="41.85" height="876.53" transform="translate(-43.43 44.31) rotate(-1.72)"/><rect class="cls-1" x="1472.64" y="1026.86" width="41.85" height="876.53" transform="translate(-43.37 45.57) rotate(-1.72)"/><rect class="cls-1" x="1514.47" y="1025.6" width="41.85" height="876.53" transform="translate(-43.32 46.82) rotate(-1.72)"/><rect class="cls-1" x="1556.31" y="1024.34" width="41.85" height="876.53" transform="translate(-43.26 48.08) rotate(-1.72)"/><rect class="cls-1" x="1598.14" y="1023.08" width="41.85" height="876.53" transform="translate(-43.2 49.34) rotate(-1.72)"/><rect class="cls-1" x="1639.97" y="1021.82" width="41.85" height="876.53" transform="translate(-43.15 50.6) rotate(-1.72)"/><rect class="cls-1" x="1681.81" y="1020.56" width="41.85" height="876.53" transform="translate(-43.09 51.85) rotate(-1.72)"/><rect class="cls-1" x="1723.64" y="1019.31" width="41.85" height="876.53" transform="translate(-43.03 53.11) rotate(-1.72)"/><rect class="cls-1" x="1765.47" y="1018.05" width="41.85" height="876.53" transform="translate(-42.98 54.37) rotate(-1.72)"/><rect class="cls-1" x="1807.31" y="1016.79" width="41.85" height="876.53" transform="translate(-42.92 55.62) rotate(-1.72)"/><rect class="cls-1" x="1849.14" y="1015.53" width="41.85" height="876.53" transform="translate(-42.86 56.88) rotate(-1.72)"/><rect class="cls-1" x="1890.98" y="1014.27" width="41.85" height="876.53" transform="translate(-42.81 58.14) rotate(-1.72)"/><path class="cls-1" d="M1946,1890l-26.35-876.14Z"/></g><path class="cls-1" d="M1831.43,925.27C1794.3,482.7,1417.14,146.48,972.8,159.85S172.15,531.49,161.7,975.5l-85.62-2C87.61,484,480.37,89,970.22,74.25s905.61,355.94,946.54,843.86Z"/><g class="cls-6"><path class="cls-1" d="M49.87,101.93,76.22,978.07Z"/><rect class="cls-1" x="63.03" y="101.11" width="41.85" height="876.53" transform="translate(-16.18 2.77) rotate(-1.72)"/><rect class="cls-1" x="104.87" y="99.85" width="41.85" height="876.53" transform="translate(-16.12 4.03) rotate(-1.72)"/><rect class="cls-1" x="146.7" y="98.59" width="41.85" height="876.53" transform="translate(-16.06 5.28) rotate(-1.72)"/><rect class="cls-1" x="188.53" y="97.33" width="41.85" height="876.53" transform="translate(-16.01 6.54) rotate(-1.72)"/><rect class="cls-1" x="230.37" y="96.07" width="41.85" height="876.53" transform="translate(-15.95 7.8) rotate(-1.72)"/><rect class="cls-1" x="272.2" y="94.82" width="41.85" height="876.53" transform="translate(-15.89 9.05) rotate(-1.72)"/><rect class="cls-1" x="314.04" y="93.56" width="41.85" height="876.53" transform="translate(-15.84 10.31) rotate(-1.72)"/><rect class="cls-1" x="355.87" y="92.3" width="41.85" height="876.53" transform="translate(-15.78 11.57) rotate(-1.72)"/><rect class="cls-1" x="397.7" y="91.04" width="41.85" height="876.53" transform="translate(-15.72 12.83) rotate(-1.72)"/><rect class="cls-1" x="439.54" y="89.78" width="41.85" height="876.53" transform="translate(-15.67 14.08) rotate(-1.72)"/><rect class="cls-1" x="481.37" y="88.52" width="41.85" height="876.53" transform="translate(-15.61 15.34) rotate(-1.72)"/><rect class="cls-1" x="523.2" y="87.27" width="41.85" height="876.53" transform="translate(-15.55 16.6) rotate(-1.72)"/><rect class="cls-1" x="565.04" y="86.01" width="41.85" height="876.53" transform="translate(-15.5 17.85) rotate(-1.72)"/><rect class="cls-1" x="606.87" y="84.75" width="41.85" height="876.53" transform="translate(-15.44 19.11) rotate(-1.72)"/><rect class="cls-1" x="648.71" y="83.49" width="41.85" height="876.53" transform="translate(-15.38 20.37) rotate(-1.72)"/><rect class="cls-1" x="690.54" y="82.23" width="41.85" height="876.53" transform="translate(-15.33 21.63) rotate(-1.72)"/><rect class="cls-1" x="732.37" y="80.97" width="41.85" height="876.53" transform="translate(-15.27 22.88) rotate(-1.72)"/><rect class="cls-1" x="774.21" y="79.72" width="41.85" height="876.53" transform="translate(-15.21 24.14) rotate(-1.72)"/><rect class="cls-1" x="816.04" y="78.46" width="41.85" height="876.53" transform="translate(-15.16 25.4) rotate(-1.72)"/><rect class="cls-1" x="857.87" y="77.2" width="41.85" height="876.53" transform="translate(-15.1 26.65) rotate(-1.72)"/><rect class="cls-1" x="899.71" y="75.94" width="41.85" height="876.53" transform="translate(-15.04 27.91) rotate(-1.72)"/><rect class="cls-1" x="941.54" y="74.68" width="41.85" height="876.53" transform="translate(-14.99 29.17) rotate(-1.72)"/><rect class="cls-1" x="983.37" y="73.42" width="41.85" height="876.53" transform="translate(-14.93 30.43) rotate(-1.72)"/><rect class="cls-1" x="1025.21" y="72.17" width="41.85" height="876.53" transform="translate(-14.87 31.68) rotate(-1.72)"/><rect class="cls-1" x="1067.04" y="70.91" width="41.85" height="876.53" transform="translate(-14.82 32.94) rotate(-1.72)"/><rect class="cls-1" x="1108.88" y="69.65" width="41.85" height="876.53" transform="translate(-14.76 34.2) rotate(-1.72)"/><rect class="cls-1" x="1150.71" y="68.39" width="41.85" height="876.53" transform="translate(-14.7 35.45) rotate(-1.72)"/><rect class="cls-1" x="1192.54" y="67.13" width="41.85" height="876.53" transform="translate(-14.65 36.71) rotate(-1.72)"/><rect class="cls-1" x="1234.38" y="65.87" width="41.85" height="876.53" transform="translate(-14.59 37.97) rotate(-1.72)"/><rect class="cls-1" x="1276.21" y="64.62" width="41.85" height="876.53" transform="translate(-14.53 39.23) rotate(-1.72)"/><rect class="cls-1" x="1318.04" y="63.36" width="41.85" height="876.53" transform="translate(-14.48 40.48) rotate(-1.72)"/><rect class="cls-1" x="1359.88" y="62.1" width="41.85" height="876.53" transform="translate(-14.42 41.74) rotate(-1.72)"/><rect class="cls-1" x="1401.71" y="60.84" width="41.85" height="876.53" transform="translate(-14.36 43) rotate(-1.72)"/><rect class="cls-1" x="1443.54" y="59.58" width="41.85" height="876.53" transform="translate(-14.31 44.25) rotate(-1.72)"/><rect class="cls-1" x="1485.38" y="58.32" width="41.85" height="876.53" transform="translate(-14.25 45.51) rotate(-1.72)"/><rect class="cls-1" x="1527.21" y="57.07" width="41.85" height="876.53" transform="translate(-14.19 46.77) rotate(-1.72)"/><rect class="cls-1" x="1569.05" y="55.81" width="41.85" height="876.53" transform="translate(-14.14 48.03) rotate(-1.72)"/><rect class="cls-1" x="1610.88" y="54.55" width="41.85" height="876.53" transform="translate(-14.08 49.28) rotate(-1.72)"/><rect class="cls-1" x="1652.71" y="53.29" width="41.85" height="876.53" transform="translate(-14.02 50.54) rotate(-1.72)"/><rect class="cls-1" x="1694.55" y="52.03" width="41.85" height="876.53" transform="translate(-13.97 51.8) rotate(-1.72)"/><rect class="cls-1" x="1736.38" y="50.77" width="41.85" height="876.53" transform="translate(-13.91 53.05) rotate(-1.72)"/><rect class="cls-1" x="1778.21" y="49.52" width="41.85" height="876.53" transform="translate(-13.85 54.31) rotate(-1.72)"/><rect class="cls-1" x="1820.05" y="48.26" width="41.85" height="876.53" transform="translate(-13.8 55.57) rotate(-1.72)"/><rect class="cls-1" x="1861.88" y="47" width="41.85" height="876.53" transform="translate(-13.74 56.83) rotate(-1.72)"/><path class="cls-1" d="M1916.9,922.7,1890.55,46.57Z"/></g></svg>