<svg id="Layer_1" data-name="Layer 1" xmlns="http://www.w3.org/2000/svg" xmlns:xlink="http://www.w3.org/1999/xlink" viewBox="0 0 2000 2000"><defs><style>.cls-1{fill:#662d91;}.cls-2{clip-path:url(#clip-path);}.cls-3{clip-path:url(#clip-path-2);}.cls-4{fill:#39b54a;}.cls-5{clip-path:url(#clip-path-3);}.cls-6{clip-path:url(#clip-path-4);}</style><clipPath id="clip-path"><path class="cls-1" d="M1202.61,982.28v.25c0,.43,0,.86,0,1.29,0,.93,0,1.88-.06,2.82v.15a224.45,224.45,0,0,1-1.92,23.89.15.15,0,0,1,0,.09A221.68,221.68,0,0,1,1182,1074.4l-30-13.94a188.17,188.17,0,0,0,15.84-54.2,195.21,195.21,0,0,0,1.7-22.91c0-.23,0-.47,0-.69,0-1.21-.13-2.4-.22-3.58-3.67-45.23-39.95-80.65-82.62-80.65-45.71,0-82.91,39.64-82.91,88.36l-33.3,11.37v-18c-3.18-45.64-39-81.74-82.67-81.74-45.72,0-82.93,39.64-82.93,88.36h-33c0-32.27,12-62.65,33.66-85.54,21.94-23.13,51.17-35.87,82.32-35.87s60.37,12.74,82.31,35.87a122.38,122.38,0,0,1,17.14,23,120.56,120.56,0,0,1,17.12-23c21.94-23.13,51.18-35.87,82.31-35.87a111.51,111.51,0,0,1,53.1,13.44C1107.24,828,1051.05,793.92,987,793l.48-33a215,215,0,0,1,84.53,18.5,217.7,217.7,0,0,1,68.56,48,221.33,221.33,0,0,1,62,155.79Z"/></clipPath><clipPath id="clip-path-2"><path class="cls-1" d="M970.74,1104.79l31.52-8.24.7,51.28s-1,16.77,14.31,23.39v37.06s-44.31,2.21-45.71-52.07Z"/></clipPath><clipPath id="clip-path-3"><path class="cls-1" d="M987.51,1260.74c-147.62,4.44-272.91-107.26-285.25-254.29l25.72-2.16C739.17,1137.66,852.82,1239,986.73,1235S1228,1123,1231.14,989.16l25.8.6C1253.47,1137.27,1135.12,1256.3,987.51,1260.74Z"/></clipPath><clipPath id="clip-path-4"><path class="cls-1" d="M1230.32,961.69C1219.13,828.32,1105.48,727,971.57,731S730.3,843,727.15,976.83l-25.8-.61c3.48-147.51,121.83-266.54,269.45-271S1243.7,812.5,1256,959.53Z"/></clipPath></defs><path class="cls-1" d="M1202.61,982.28v.25c0,.43,0,.86,0,1.29,0,.93,0,1.88-.06,2.82v.15a224.45,224.45,0,0,1-1.92,23.89.15.15,0,0,1,0,.09A221.68,221.68,0,0,1,1182,1074.4l-30-13.94a188.17,188.17,0,0,0,15.84-54.2,195.21,195.21,0,0,0,1.7-22.91c0-.23,0-.47,0-.69,0-1.21-.13-2.4-.22-3.58-3.67-45.23-39.95-80.65-82.62-80.65-45.71,0-82.91,39.64-82.91,88.36l-33.3,11.37v-18c-3.18-45.64-39-81.74-82.67-81.74-45.72,0-82.93,39.64-82.93,88.36h-33c0-32.27,12-62.65,33.66-85.54,21.94-23.13,51.17-35.87,82.32-35.87s60.37,12.74,82.31,35.87a122.38,122.38,0,0,1,17.14,23,120.56,120.56,0,0,1,17.12-23c21.94-23.13,51.18-35.87,82.31-35.87a111.51,111.51,0,0,1,53.1,13.44C1107.24,828,1051.05,793.92,987,793l.48-33a215,215,0,0,1,84.53,18.5,217.7,217.7,0,0,1,68.56,48,221.33,221.33,0,0,1,62,155.79Z"/><g class="cls-2"><rect class="cls-1" x="771.85" y="759.94" width="9.79" height="314.46"/><rect class="cls-1" x="781.64" y="759.94" width="9.79" height="314.46"/><rect class="cls-1" x="791.43" y="759.94" width="9.79" height="314.46"/><rect class="cls-1" x="801.22" y="759.94" width="9.79" height="314.46"/><rect class="cls-1" x="811.01" y="759.94" width="9.79" height="314.46"/><rect class="cls-1" x="820.8" y="759.94" width="9.79" height="314.46"/><rect class="cls-1" x="830.59" y="759.94" width="9.79" height="314.46"/><rect class="cls-1" x="840.38" y="759.94" width="9.79" height="314.46"/><rect class="cls-1" x="850.17" y="759.94" width="9.79" height="314.46"/><rect class="cls-1" x="859.96" y="759.94" width="9.79" height="314.46"/><rect class="cls-1" x="869.75" y="759.94" width="9.79" height="314.46"/><rect class="cls-1" x="879.54" y="759.94" width="9.79" height="314.46"/><rect class="cls-1" x="889.33" y="759.94" width="9.79" height="314.46"/><rect class="cls-1" x="899.12" y="759.94" width="9.79" height="314.46"/><rect class="cls-1" x="908.91" y="759.94" width="9.79" height="314.46"/><rect class="cls-1" x="918.7" y="759.94" width="9.79" height="314.46"/><rect class="cls-1" x="928.49" y="759.94" width="9.79" height="314.46"/><rect class="cls-1" x="938.28" y="759.94" width="9.79" height="314.46"/><rect class="cls-1" x="948.07" y="759.94" width="9.79" height="314.46"/><rect class="cls-1" x="957.86" y="759.94" width="9.79" height="314.46"/><rect class="cls-1" x="967.65" y="759.94" width="9.79" height="314.46"/><rect class="cls-1" x="977.44" y="759.94" width="9.79" height="314.46"/><rect class="cls-1" x="987.23" y="759.94" width="9.79" height="314.46"/><rect class="cls-1" x="997.02" y="759.94" width="9.79" height="314.46"/><rect class="cls-1" x="1006.81" y="759.94" width="9.79" height="314.46"/><rect class="cls-1" x="1016.6" y="759.94" width="9.79" height="314.46"/><rect class="cls-1" x="1026.39" y="759.94" width="9.79" height="314.46"/><rect class="cls-1" x="1036.18" y="759.94" width="9.79" height="314.46"/><rect class="cls-1" x="1045.97" y="759.94" width="9.79" height="314.46"/><rect class="cls-1" x="1055.76" y="759.94" width="9.79" height="314.46"/><rect class="cls-1" x="1065.55" y="759.94" width="9.79" height="314.46"/><rect class="cls-1" x="1075.34" y="759.94" width="9.79" height="314.46"/><rect class="cls-1" x="1085.13" y="759.94" width="9.79" height="314.46"/><rect class="cls-1" x="1094.92" y="759.94" width="9.79" height="314.46"/><rect class="cls-1" x="1104.71" y="759.94" width="9.79" height="314.46"/><rect class="cls-1" x="1114.5" y="759.94" width="9.79" height="314.46"/><rect class="cls-1" x="1124.29" y="759.94" width="9.79" height="314.46"/><rect class="cls-1" x="1134.08" y="759.94" width="9.79" height="314.46"/><rect class="cls-1" x="1143.87" y="759.94" width="9.79" height="314.46"/><rect class="cls-1" x="1153.66" y="759.94" width="9.79" height="314.46"/><rect class="cls-1" x="1163.45" y="759.94" width="9.79" height="314.46"/><rect class="cls-1" x="1173.24" y="759.94" width="9.79" height="314.46"/><rect class="cls-1" x="1183.03" y="759.94" width="9.79" height="314.46"/><rect class="cls-1" x="1192.82" y="759.94" width="9.79" height="314.46"/><rect class="cls-1" x="1202.61" y="759.94" width="0.22" height="314.46"/></g><path class="cls-1" d="M970.74,1104.79l31.52-8.24.7,51.28s-1,16.77,14.31,23.39v37.06s-44.31,2.21-45.71-52.07Z"/><g class="cls-3"><rect class="cls-1" x="970.74" y="1096.55" width="1.06" height="113.94"/><rect class="cls-1" x="971.8" y="1096.55" width="1.06" height="113.94"/><rect class="cls-1" x="972.86" y="1096.55" width="1.06" height="113.94"/><rect class="cls-1" x="973.91" y="1096.55" width="1.06" height="113.94"/><rect class="cls-1" x="974.97" y="1096.55" width="1.06" height="113.94"/><rect class="cls-1" x="976.03" y="1096.55" width="1.06" height="113.94"/><rect class="cls-1" x="977.09" y="1096.55" width="1.06" height="113.94"/><rect class="cls-1" x="978.14" y="1096.55" width="1.06" height="113.94"/><rect class="cls-1" x="979.2" y="1096.55" width="1.06" height="113.94"/><rect class="cls-1" x="980.26" y="1096.55" width="1.06" height="113.94"/><rect class="cls-1" x="981.32" y="1096.55" width="1.06" height="113.94"/><rect class="cls-1" x="982.37" y="1096.55" width="1.06" height="113.94"/><rect class="cls-1" x="983.43" y="1096.55" width="1.06" height="113.94"/><rect class="cls-1" x="984.49" y="1096.55" width="1.06" height="113.94"/><rect class="cls-1" x="985.55" y="1096.55" width="1.06" height="113.94"/><rect class="cls-1" x="986.6" y="1096.55" width="1.06" height="113.94"/><rect class="cls-1" x="987.66" y="1096.55" width="1.06" height="113.94"/><rect class="cls-1" x="988.72" y="1096.55" width="1.06" height="113.94"/><rect class="cls-1" x="989.78" y="1096.55" width="1.06" height="113.94"/><rect class="cls-1" x="990.83" y="1096.55" width="1.06" height="113.94"/><rect class="cls-1" x="991.89" y="1096.55" width="1.06" height="113.94"/><rect class="cls-1" x="992.95" y="1096.55" width="1.06" height="113.94"/><rect class="cls-1" x="994.01" y="1096.55" width="1.06" height="113.94"/><rect class="cls-1" x="995.06" y="1096.55" width="1.06" height="113.94"/><rect class="cls-1" x="996.12" y="1096.55" width="1.06" height="113.94"/><rect class="cls-1" x="997.18" y="1096.55" width="1.06" height="113.94"/><rect class="cls-1" x="998.24" y="1096.55" width="1.06" height="113.94"/><rect class="cls-1" x="999.29" y="1096.55" width="1.06" height="113.94"/><rect class="cls-1" x="1000.35" y="1096.55" width="1.06" height="113.94"/><rect class="cls-1" x="1001.41" y="1096.55" width="1.06" height="113.94"/><rect class="cls-1" x="1002.47" y="1096.55" width="1.06" height="113.94"/><rect class="cls-1" x="1003.52" y="1096.55" width="1.06" height="113.94"/><rect class="cls-1" x="1004.58" y="1096.55" width="1.06" height="113.94"/><rect class="cls-1" x="1005.64" y="1096.55" width="1.06" height="113.94"/><rect class="cls-1" x="1006.7" y="1096.55" width="1.06" height="113.94"/><rect class="cls-1" x="1007.75" y="1096.55" width="1.06" height="113.94"/><rect class="cls-1" x="1008.81" y="1096.55" width="1.06" height="113.94"/><rect class="cls-1" x="1009.87" y="1096.55" width="1.06" height="113.94"/><rect class="cls-1" x="1010.93" y="1096.55" width="1.06" height="113.94"/><rect class="cls-1" x="1011.98" y="1096.55" width="1.06" height="113.94"/><rect class="cls-1" x="1013.04" y="1096.55" width="1.06" height="113.94"/><rect class="cls-1" x="1014.1" y="1096.55" width="1.06" height="113.94"/><rect class="cls-1" x="1015.16" y="1096.55" width="1.06" height="113.94"/><rect class="cls-1" x="1016.21" y="1096.55" width="1.06" height="113.94"/></g><path class="cls-1" d="M987.27,728.9"/><path class="cls-4" d="M965.86,1043.62l-.47-28.61L1047,989.16l.48,31.21Z"/><path class="cls-4" d="M940.59,1091.9l.36-28.6,82.06-23.49.7,28Z"/><path class="cls-1" d="M987.51,1260.74c-147.62,4.44-272.91-107.26-285.25-254.29l25.72-2.16C739.17,1137.66,852.82,1239,986.73,1235S1228,1123,1231.14,989.16l25.8.6C1253.47,1137.27,1135.12,1256.3,987.51,1260.74Z"/><g class="cls-5"><path class="cls-1" d="M702.22,1005.07l7.94,264Z"/><rect class="cls-1" x="706.19" y="1004.82" width="12.61" height="264.14" transform="translate(-33.86 21.94) rotate(-1.72)"/><rect class="cls-1" x="718.79" y="1004.44" width="12.61" height="264.14" transform="translate(-33.84 22.31) rotate(-1.72)"/><rect class="cls-1" x="731.4" y="1004.06" width="12.61" height="264.14" transform="translate(-33.82 22.69) rotate(-1.72)"/><rect class="cls-1" x="744.01" y="1003.68" width="12.61" height="264.14" transform="translate(-33.81 23.07) rotate(-1.72)"/><rect class="cls-1" x="756.61" y="1003.3" width="12.61" height="264.14" transform="translate(-33.79 23.45) rotate(-1.72)"/><rect class="cls-1" x="769.22" y="1002.92" width="12.61" height="264.14" transform="translate(-33.77 23.83) rotate(-1.72)"/><rect class="cls-1" x="781.83" y="1002.54" width="12.61" height="264.14" transform="translate(-33.76 24.21) rotate(-1.72)"/><rect class="cls-1" x="794.43" y="1002.16" width="12.61" height="264.14" transform="translate(-33.74 24.59) rotate(-1.72)"/><rect class="cls-1" x="807.04" y="1001.78" width="12.61" height="264.14" transform="translate(-33.72 24.97) rotate(-1.72)"/><rect class="cls-1" x="819.65" y="1001.4" width="12.61" height="264.14" transform="translate(-33.7 25.34) rotate(-1.72)"/><rect class="cls-1" x="832.25" y="1001.02" width="12.61" height="264.14" transform="translate(-33.69 25.72) rotate(-1.72)"/><rect class="cls-1" x="844.86" y="1000.65" width="12.61" height="264.14" transform="translate(-33.67 26.1) rotate(-1.72)"/><rect class="cls-1" x="857.46" y="1000.27" width="12.61" height="264.14" transform="translate(-33.65 26.48) rotate(-1.72)"/><rect class="cls-1" x="870.07" y="999.89" width="12.61" height="264.14" transform="translate(-33.64 26.86) rotate(-1.72)"/><rect class="cls-1" x="882.68" y="999.51" width="12.61" height="264.14" transform="translate(-33.62 27.24) rotate(-1.72)"/><rect class="cls-1" x="895.28" y="999.13" width="12.61" height="264.14" transform="translate(-33.6 27.62) rotate(-1.72)"/><rect class="cls-1" x="907.89" y="998.75" width="12.61" height="264.14" transform="translate(-33.59 28) rotate(-1.72)"/><rect class="cls-1" x="920.5" y="998.37" width="12.61" height="264.14" transform="translate(-33.57 28.38) rotate(-1.72)"/><rect class="cls-1" x="933.1" y="997.99" width="12.61" height="264.14" transform="translate(-33.55 28.75) rotate(-1.72)"/><rect class="cls-1" x="945.71" y="997.61" width="12.61" height="264.14" transform="translate(-33.53 29.13) rotate(-1.72)"/><rect class="cls-1" x="958.32" y="997.23" width="12.61" height="264.14" transform="translate(-33.52 29.51) rotate(-1.72)"/><rect class="cls-1" x="970.92" y="996.85" width="12.61" height="264.14" transform="translate(-33.5 29.89) rotate(-1.72)"/><rect class="cls-1" x="983.53" y="996.47" width="12.61" height="264.14" transform="translate(-33.48 30.27) rotate(-1.72)"/><rect class="cls-1" x="996.14" y="996.09" width="12.61" height="264.14" transform="translate(-33.47 30.65) rotate(-1.72)"/><rect class="cls-1" x="1008.74" y="995.72" width="12.61" height="264.14" transform="translate(-33.45 31.03) rotate(-1.72)"/><rect class="cls-1" x="1021.35" y="995.34" width="12.61" height="264.14" transform="translate(-33.43 31.41) rotate(-1.72)"/><rect class="cls-1" x="1033.95" y="994.96" width="12.61" height="264.14" transform="translate(-33.41 31.79) rotate(-1.72)"/><rect class="cls-1" x="1046.56" y="994.58" width="12.61" height="264.14" transform="translate(-33.4 32.16) rotate(-1.72)"/><rect class="cls-1" x="1059.17" y="994.2" width="12.61" height="264.14" transform="translate(-33.38 32.54) rotate(-1.72)"/><rect class="cls-1" x="1071.77" y="993.82" width="12.61" height="264.14" transform="translate(-33.36 32.92) rotate(-1.72)"/><rect class="cls-1" x="1084.38" y="993.44" width="12.61" height="264.14" transform="translate(-33.35 33.3) rotate(-1.72)"/><rect class="cls-1" x="1096.99" y="993.06" width="12.61" height="264.14" transform="translate(-33.33 33.68) rotate(-1.72)"/><rect class="cls-1" x="1109.59" y="992.68" width="12.61" height="264.14" transform="translate(-33.31 34.06) rotate(-1.72)"/><rect class="cls-1" x="1122.2" y="992.3" width="12.61" height="264.14" transform="translate(-33.29 34.44) rotate(-1.72)"/><rect class="cls-1" x="1134.81" y="991.92" width="12.61" height="264.14" transform="translate(-33.28 34.82) rotate(-1.72)"/><rect class="cls-1" x="1147.41" y="991.54" width="12.61" height="264.14" transform="translate(-33.26 35.19) rotate(-1.72)"/><rect class="cls-1" x="1160.02" y="991.17" width="12.61" height="264.14" transform="translate(-33.24 35.57) rotate(-1.72)"/><rect class="cls-1" x="1172.62" y="990.79" width="12.61" height="264.14" transform="translate(-33.23 35.95) rotate(-1.72)"/><rect class="cls-1" x="1185.23" y="990.41" width="12.61" height="264.14" transform="translate(-33.21 36.33) rotate(-1.72)"/><rect class="cls-1" x="1197.84" y="990.03" width="12.61" height="264.14" transform="translate(-33.19 36.71) rotate(-1.72)"/><rect class="cls-1" x="1210.44" y="989.65" width="12.61" height="264.14" transform="translate(-33.17 37.09) rotate(-1.72)"/><rect class="cls-1" x="1223.05" y="989.27" width="12.61" height="264.14" transform="translate(-33.16 37.47) rotate(-1.72)"/><rect class="cls-1" x="1235.66" y="988.89" width="12.61" height="264.14" transform="translate(-33.14 37.85) rotate(-1.72)"/><rect class="cls-1" x="1248.26" y="988.51" width="12.61" height="264.14" transform="translate(-33.12 38.23) rotate(-1.72)"/><path class="cls-1" d="M1264.84,1252.4l-7.94-264Z"/></g><path class="cls-1" d="M1230.32,961.69C1219.13,828.32,1105.48,727,971.57,731S730.3,843,727.15,976.83l-25.8-.61c3.48-147.51,121.83-266.54,269.45-271S1243.7,812.5,1256,959.53Z"/><g class="cls-6"><path class="cls-1" d="M693.45,713.58l7.94,264Z"/><rect class="cls-1" x="697.42" y="713.33" width="12.61" height="264.14" transform="translate(-25.1 21.54) rotate(-1.72)"/><rect class="cls-1" x="710.03" y="712.95" width="12.61" height="264.14" transform="translate(-25.08 21.92) rotate(-1.72)"/><rect class="cls-1" x="722.63" y="712.57" width="12.61" height="264.14" transform="translate(-25.06 22.3) rotate(-1.72)"/><rect class="cls-1" x="735.24" y="712.19" width="12.61" height="264.14" transform="translate(-25.05 22.68) rotate(-1.72)"/><rect class="cls-1" x="747.85" y="711.82" width="12.61" height="264.14" transform="translate(-25.03 23.06) rotate(-1.72)"/><rect class="cls-1" x="760.45" y="711.44" width="12.61" height="264.14" transform="translate(-25.01 23.43) rotate(-1.72)"/><rect class="cls-1" x="773.06" y="711.06" width="12.61" height="264.14" transform="translate(-25 23.81) rotate(-1.72)"/><rect class="cls-1" x="785.67" y="710.68" width="12.61" height="264.14" transform="translate(-24.98 24.19) rotate(-1.72)"/><rect class="cls-1" x="798.27" y="710.3" width="12.61" height="264.14" transform="translate(-24.96 24.57) rotate(-1.72)"/><rect class="cls-1" x="810.88" y="709.92" width="12.61" height="264.14" transform="translate(-24.95 24.95) rotate(-1.72)"/><rect class="cls-1" x="823.48" y="709.54" width="12.61" height="264.14" transform="translate(-24.93 25.33) rotate(-1.72)"/><rect class="cls-1" x="836.09" y="709.16" width="12.61" height="264.14" transform="translate(-24.91 25.71) rotate(-1.72)"/><rect class="cls-1" x="848.7" y="708.78" width="12.61" height="264.14" transform="translate(-24.89 26.09) rotate(-1.72)"/><rect class="cls-1" x="861.3" y="708.4" width="12.61" height="264.14" transform="translate(-24.88 26.46) rotate(-1.72)"/><rect class="cls-1" x="873.91" y="708.02" width="12.61" height="264.14" transform="translate(-24.86 26.84) rotate(-1.72)"/><rect class="cls-1" x="886.52" y="707.64" width="12.61" height="264.14" transform="translate(-24.84 27.22) rotate(-1.72)"/><rect class="cls-1" x="899.12" y="707.27" width="12.61" height="264.14" transform="translate(-24.83 27.6) rotate(-1.72)"/><rect class="cls-1" x="911.73" y="706.89" width="12.61" height="264.14" transform="translate(-24.81 27.98) rotate(-1.72)"/><rect class="cls-1" x="924.34" y="706.51" width="12.61" height="264.14" transform="translate(-24.79 28.36) rotate(-1.72)"/><rect class="cls-1" x="936.94" y="706.13" width="12.61" height="264.14" transform="translate(-24.77 28.74) rotate(-1.72)"/><rect class="cls-1" x="949.55" y="705.75" width="12.61" height="264.14" transform="translate(-24.76 29.12) rotate(-1.72)"/><rect class="cls-1" x="962.15" y="705.37" width="12.61" height="264.14" transform="translate(-24.74 29.5) rotate(-1.72)"/><rect class="cls-1" x="974.76" y="704.99" width="12.61" height="264.14" transform="translate(-24.72 29.87) rotate(-1.72)"/><rect class="cls-1" x="987.37" y="704.61" width="12.61" height="264.14" transform="translate(-24.71 30.25) rotate(-1.72)"/><rect class="cls-1" x="999.97" y="704.23" width="12.61" height="264.14" transform="translate(-24.69 30.63) rotate(-1.72)"/><rect class="cls-1" x="1012.58" y="703.85" width="12.61" height="264.14" transform="translate(-24.67 31.01) rotate(-1.72)"/><rect class="cls-1" x="1025.19" y="703.47" width="12.61" height="264.14" transform="translate(-24.65 31.39) rotate(-1.72)"/><rect class="cls-1" x="1037.79" y="703.09" width="12.61" height="264.14" transform="translate(-24.64 31.77) rotate(-1.72)"/><rect class="cls-1" x="1050.4" y="702.72" width="12.61" height="264.14" transform="translate(-24.62 32.15) rotate(-1.72)"/><rect class="cls-1" x="1063.01" y="702.34" width="12.61" height="264.14" transform="translate(-24.6 32.53) rotate(-1.72)"/><rect class="cls-1" x="1075.61" y="701.96" width="12.61" height="264.14" transform="translate(-24.59 32.91) rotate(-1.72)"/><rect class="cls-1" x="1088.22" y="701.58" width="12.61" height="264.14" transform="translate(-24.57 33.28) rotate(-1.72)"/><rect class="cls-1" x="1100.83" y="701.2" width="12.61" height="264.14" transform="translate(-24.55 33.66) rotate(-1.72)"/><rect class="cls-1" x="1113.43" y="700.82" width="12.61" height="264.14" transform="translate(-24.53 34.04) rotate(-1.72)"/><rect class="cls-1" x="1126.04" y="700.44" width="12.61" height="264.14" transform="translate(-24.52 34.42) rotate(-1.72)"/><rect class="cls-1" x="1138.64" y="700.06" width="12.61" height="264.14" transform="translate(-24.5 34.8) rotate(-1.72)"/><rect class="cls-1" x="1151.25" y="699.68" width="12.61" height="264.14" transform="translate(-24.48 35.18) rotate(-1.72)"/><rect class="cls-1" x="1163.86" y="699.3" width="12.61" height="264.14" transform="translate(-24.47 35.56) rotate(-1.72)"/><rect class="cls-1" x="1176.46" y="698.92" width="12.61" height="264.14" transform="translate(-24.45 35.94) rotate(-1.72)"/><rect class="cls-1" x="1189.07" y="698.54" width="12.61" height="264.14" transform="translate(-24.43 36.31) rotate(-1.72)"/><rect class="cls-1" x="1201.68" y="698.16" width="12.61" height="264.14" transform="translate(-24.42 36.69) rotate(-1.72)"/><rect class="cls-1" x="1214.28" y="697.79" width="12.61" height="264.14" transform="translate(-24.4 37.07) rotate(-1.72)"/><rect class="cls-1" x="1226.89" y="697.41" width="12.61" height="264.14" transform="translate(-24.38 37.45) rotate(-1.72)"/><rect class="cls-1" x="1239.5" y="697.03" width="12.61" height="264.14" transform="translate(-24.36 37.83) rotate(-1.72)"/><path class="cls-1" d="M1256.08,960.92l-7.95-264Z"/></g></svg>