<svg id="Layer_1" data-name="Layer 1" xmlns="http://www.w3.org/2000/svg" xmlns:xlink="http://www.w3.org/1999/xlink" viewBox="0 0 2000 2000"><defs><style>.cls-1{fill:#231f20;}.cls-2{clip-path:url(#clip-path);}.cls-3{clip-path:url(#clip-path-2);}.cls-4{clip-path:url(#clip-path-3);}.cls-5{clip-path:url(#clip-path-4);}</style><clipPath id="clip-path"><path class="cls-1" d="M995,928.26v.24c0,.43,0,.86,0,1.3,0,.93,0,1.88-.06,2.81v.15A224.47,224.47,0,0,1,993,956.65a.22.22,0,0,1,0,.09,221.91,221.91,0,0,1-18.61,63.63l-30-13.93a188.26,188.26,0,0,0,15.84-54.2,195.22,195.22,0,0,0,1.7-22.92c0-.22,0-.46,0-.69-.06-1.2-.13-2.39-.23-3.58-3.67-45.22-39.94-80.64-82.61-80.64-45.72,0-82.91,39.63-82.91,88.35l-33.3,11.38v-18c-3.19-45.64-39-81.74-82.68-81.74-45.72,0-82.92,39.63-82.92,88.35H564.27c0-32.27,12-62.64,33.67-85.53,21.94-23.13,51.16-35.87,82.31-35.87s60.38,12.74,82.31,35.87a121.77,121.77,0,0,1,17.14,23,120.44,120.44,0,0,1,17.13-23c21.93-23.13,51.17-35.87,82.31-35.87a111.4,111.4,0,0,1,53.1,13.44C899.67,774,843.47,739.89,779.45,739l.49-33.05a214.94,214.94,0,0,1,84.52,18.49A217.47,217.47,0,0,1,933,772.46a221.33,221.33,0,0,1,62,155.8Z"/></clipPath><clipPath id="clip-path-2"><path class="cls-1" d="M763.17,1050.77l31.51-8.24.71,51.27s-1,16.77,14.31,23.39v37.07s-44.32,2.21-45.71-52.07Z"/></clipPath><clipPath id="clip-path-3"><path class="cls-1" d="M779.93,1206.72c-147.61,4.44-272.91-107.26-285.24-254.3l25.71-2.15c11.19,133.37,124.85,234.68,258.76,230.65s241.26-112,244.41-245.79l25.8.61C1045.89,1083.25,927.54,1202.28,779.93,1206.72Z"/></clipPath><clipPath id="clip-path-4"><path class="cls-1" d="M1022.74,907.67C1011.56,774.3,897.9,673,764,677S522.73,789,519.58,922.8l-25.8-.61c3.47-147.51,121.83-266.53,269.44-271s272.9,107.26,285.24,254.3Z"/></clipPath></defs><path class="cls-1" d="M995,928.26v.24c0,.43,0,.86,0,1.3,0,.93,0,1.88-.06,2.81v.15A224.47,224.47,0,0,1,993,956.65a.22.22,0,0,1,0,.09,221.91,221.91,0,0,1-18.61,63.63l-30-13.93a188.26,188.26,0,0,0,15.84-54.2,195.22,195.22,0,0,0,1.7-22.92c0-.22,0-.46,0-.69-.06-1.2-.13-2.39-.23-3.58-3.67-45.22-39.94-80.64-82.61-80.64-45.72,0-82.91,39.63-82.91,88.35l-33.3,11.38v-18c-3.19-45.64-39-81.74-82.68-81.74-45.72,0-82.92,39.63-82.92,88.35H564.27c0-32.27,12-62.64,33.67-85.53,21.94-23.13,51.16-35.87,82.31-35.87s60.38,12.74,82.31,35.87a121.77,121.77,0,0,1,17.14,23,120.44,120.44,0,0,1,17.13-23c21.93-23.13,51.17-35.87,82.31-35.87a111.4,111.4,0,0,1,53.1,13.44C899.67,774,843.47,739.89,779.45,739l.49-33.05a214.94,214.94,0,0,1,84.52,18.49A217.47,217.47,0,0,1,933,772.46a221.33,221.33,0,0,1,62,155.8Z"/><g class="cls-2"><rect class="cls-1" x="564.27" y="705.92" width="9.79" height="314.46"/><rect class="cls-1" x="574.06" y="705.92" width="9.79" height="314.46"/><rect class="cls-1" x="583.85" y="705.92" width="9.79" height="314.46"/><rect class="cls-1" x="593.64" y="705.92" width="9.79" height="314.46"/><rect class="cls-1" x="603.43" y="705.92" width="9.79" height="314.46"/><rect class="cls-1" x="613.22" y="705.92" width="9.79" height="314.46"/><rect class="cls-1" x="623.01" y="705.92" width="9.79" height="314.46"/><rect class="cls-1" x="632.8" y="705.92" width="9.79" height="314.46"/><rect class="cls-1" x="642.59" y="705.92" width="9.79" height="314.46"/><rect class="cls-1" x="652.38" y="705.92" width="9.79" height="314.46"/><rect class="cls-1" x="662.17" y="705.92" width="9.79" height="314.46"/><rect class="cls-1" x="671.96" y="705.92" width="9.79" height="314.46"/><rect class="cls-1" x="681.75" y="705.92" width="9.79" height="314.46"/><rect class="cls-1" x="691.54" y="705.92" width="9.79" height="314.46"/><rect class="cls-1" x="701.34" y="705.92" width="9.79" height="314.46"/><rect class="cls-1" x="711.13" y="705.92" width="9.79" height="314.46"/><rect class="cls-1" x="720.92" y="705.92" width="9.79" height="314.46"/><rect class="cls-1" x="730.71" y="705.92" width="9.79" height="314.46"/><rect class="cls-1" x="740.5" y="705.92" width="9.79" height="314.46"/><rect class="cls-1" x="750.29" y="705.92" width="9.79" height="314.46"/><rect class="cls-1" x="760.08" y="705.92" width="9.79" height="314.46"/><rect class="cls-1" x="769.87" y="705.92" width="9.79" height="314.46"/><rect class="cls-1" x="779.66" y="705.92" width="9.79" height="314.46"/><rect class="cls-1" x="789.45" y="705.92" width="9.79" height="314.46"/><rect class="cls-1" x="799.24" y="705.92" width="9.79" height="314.46"/><rect class="cls-1" x="809.03" y="705.92" width="9.79" height="314.46"/><rect class="cls-1" x="818.82" y="705.92" width="9.79" height="314.46"/><rect class="cls-1" x="828.61" y="705.92" width="9.79" height="314.46"/><rect class="cls-1" x="838.4" y="705.92" width="9.79" height="314.46"/><rect class="cls-1" x="848.19" y="705.92" width="9.79" height="314.46"/><rect class="cls-1" x="857.98" y="705.92" width="9.79" height="314.46"/><rect class="cls-1" x="867.77" y="705.92" width="9.79" height="314.46"/><rect class="cls-1" x="877.56" y="705.92" width="9.79" height="314.46"/><rect class="cls-1" x="887.35" y="705.92" width="9.79" height="314.46"/><rect class="cls-1" x="897.14" y="705.92" width="9.79" height="314.46"/><rect class="cls-1" x="906.93" y="705.92" width="9.79" height="314.46"/><rect class="cls-1" x="916.72" y="705.92" width="9.79" height="314.46"/><rect class="cls-1" x="926.51" y="705.92" width="9.79" height="314.46"/><rect class="cls-1" x="936.3" y="705.92" width="9.79" height="314.46"/><rect class="cls-1" x="946.09" y="705.92" width="9.79" height="314.46"/><rect class="cls-1" x="955.88" y="705.92" width="9.79" height="314.46"/><rect class="cls-1" x="965.67" y="705.92" width="9.79" height="314.46"/><rect class="cls-1" x="975.46" y="705.92" width="9.79" height="314.46"/><rect class="cls-1" x="985.25" y="705.92" width="9.79" height="314.46"/><rect class="cls-1" x="995.04" y="705.92" width="0.22" height="314.46"/></g><path class="cls-1" d="M763.17,1050.77l31.51-8.24.71,51.27s-1,16.77,14.31,23.39v37.07s-44.32,2.21-45.71-52.07Z"/><g class="cls-3"><rect class="cls-1" x="763.17" y="1042.53" width="1.06" height="113.94"/><rect class="cls-1" x="764.22" y="1042.53" width="1.06" height="113.94"/><rect class="cls-1" x="765.28" y="1042.53" width="1.06" height="113.94"/><rect class="cls-1" x="766.34" y="1042.53" width="1.06" height="113.94"/><rect class="cls-1" x="767.4" y="1042.53" width="1.06" height="113.94"/><rect class="cls-1" x="768.45" y="1042.53" width="1.06" height="113.94"/><rect class="cls-1" x="769.51" y="1042.53" width="1.06" height="113.94"/><rect class="cls-1" x="770.57" y="1042.53" width="1.06" height="113.94"/><rect class="cls-1" x="771.63" y="1042.53" width="1.06" height="113.94"/><rect class="cls-1" x="772.68" y="1042.53" width="1.06" height="113.94"/><rect class="cls-1" x="773.74" y="1042.53" width="1.06" height="113.94"/><rect class="cls-1" x="774.8" y="1042.53" width="1.06" height="113.94"/><rect class="cls-1" x="775.86" y="1042.53" width="1.06" height="113.94"/><rect class="cls-1" x="776.91" y="1042.53" width="1.06" height="113.94"/><rect class="cls-1" x="777.97" y="1042.53" width="1.06" height="113.94"/><rect class="cls-1" x="779.03" y="1042.53" width="1.06" height="113.94"/><rect class="cls-1" x="780.09" y="1042.53" width="1.06" height="113.94"/><rect class="cls-1" x="781.14" y="1042.53" width="1.06" height="113.94"/><rect class="cls-1" x="782.2" y="1042.53" width="1.06" height="113.94"/><rect class="cls-1" x="783.26" y="1042.53" width="1.06" height="113.94"/><rect class="cls-1" x="784.32" y="1042.53" width="1.06" height="113.94"/><rect class="cls-1" x="785.37" y="1042.53" width="1.06" height="113.94"/><rect class="cls-1" x="786.43" y="1042.53" width="1.06" height="113.94"/><rect class="cls-1" x="787.49" y="1042.53" width="1.06" height="113.94"/><rect class="cls-1" x="788.55" y="1042.53" width="1.06" height="113.94"/><rect class="cls-1" x="789.6" y="1042.53" width="1.06" height="113.94"/><rect class="cls-1" x="790.66" y="1042.53" width="1.06" height="113.94"/><rect class="cls-1" x="791.72" y="1042.53" width="1.06" height="113.94"/><rect class="cls-1" x="792.78" y="1042.53" width="1.06" height="113.94"/><rect class="cls-1" x="793.83" y="1042.53" width="1.06" height="113.94"/><rect class="cls-1" x="794.89" y="1042.53" width="1.06" height="113.94"/><rect class="cls-1" x="795.95" y="1042.53" width="1.06" height="113.94"/><rect class="cls-1" x="797.01" y="1042.53" width="1.06" height="113.94"/><rect class="cls-1" x="798.06" y="1042.53" width="1.06" height="113.94"/><rect class="cls-1" x="799.12" y="1042.53" width="1.06" height="113.94"/><rect class="cls-1" x="800.18" y="1042.53" width="1.06" height="113.94"/><rect class="cls-1" x="801.24" y="1042.53" width="1.06" height="113.94"/><rect class="cls-1" x="802.29" y="1042.53" width="1.06" height="113.94"/><rect class="cls-1" x="803.35" y="1042.53" width="1.06" height="113.94"/><rect class="cls-1" x="804.41" y="1042.53" width="1.06" height="113.94"/><rect class="cls-1" x="805.47" y="1042.53" width="1.06" height="113.94"/><rect class="cls-1" x="806.52" y="1042.53" width="1.06" height="113.94"/><rect class="cls-1" x="807.58" y="1042.53" width="1.06" height="113.94"/><rect class="cls-1" x="808.64" y="1042.53" width="1.06" height="113.94"/></g><path class="cls-1" d="M779.7,674.87"/><path class="cls-1" d="M758.29,989.59l-.47-28.6,81.55-25.86.48,31.21Z"/><path class="cls-1" d="M733,1037.88l.37-28.61,82-23.49.71,28Z"/><path class="cls-1" d="M1069.54,1083.43l9.91-9.72c2.56,3.79,7.34,6.08,12.51,6.08,3.48,0,6.88-1.26,6.88-3.78,0-3.18-6.31-6-12.35-8.65-7.81-3.36-14.5-8.49-14.5-17.79,0-10.67,10.14-18.28,21.84-18.28,9.41,0,16.76,4.44,19.17,10.52l-9.45,9.1c-1.84-3.25-6.58-4.66-9.53-4.66-3.36,0-5.77,1.72-5.77,3.82,0,2.83,4.36,3.75,11,6.54,9.64,4.06,16,10,16,19.05,0,11.75-10.94,19-23.29,19C1081.86,1094.71,1072.64,1090.24,1069.54,1083.43Z"/><path class="cls-1" d="M1120.11,1063.12c0-18.52,14.69-32.56,33.85-32.56s33.86,14,33.86,32.56c0,18.36-14.69,32.32-33.89,32.32S1120.11,1081.48,1120.11,1063.12Zm51.14-.12c0-9.52-7.49-16.87-17.29-16.87s-17.29,7.35-17.29,16.87,7.5,16.79,17.29,16.79S1171.25,1072.49,1171.25,1063Z"/><path class="cls-1" d="M1235.82,1078.49v15.38h-40v-61.66h0a16.37,16.37,0,0,1,16.37,16.37v29.91Z"/><path class="cls-1" d="M1242.25,1071.45v-39.24h16.48v39.21c0,5.12,4.4,8.53,9.07,8.53s9.14-3.48,9.14-8.53v-39.21h16.49v39.24c0,14.16-11.48,24.14-25.59,24.14S1242.25,1085.61,1242.25,1071.45Z"/><path class="cls-1" d="M1331.07,1047.51h0v46.36h-16.41v-46.36h-14.81v-15.3h46v.53A14.76,14.76,0,0,1,1331.07,1047.51Z"/><path class="cls-1" d="M1352.79,1032.21h16.38v61.66h-16.38Z"/><path class="cls-1" d="M1377.2,1063.12c0-18.52,14.69-32.56,33.85-32.56s33.86,14,33.86,32.56c0,18.36-14.69,32.32-33.9,32.32S1377.2,1081.48,1377.2,1063.12Zm51.14-.12c0-9.52-7.5-16.87-17.29-16.87s-17.29,7.35-17.29,16.87,7.5,16.79,17.29,16.79S1428.34,1072.49,1428.34,1063Z"/><path class="cls-1" d="M1506.22,1032.13v62.35H1501l-31.71-30.71v30.14h-16.37V1031.6h5.28l31.59,30.6v-30.07Z"/><polygon class="cls-1" points="1357.02 952.51 1357.02 999.59 1262.85 999.59 1262.85 764.17 1309.94 764.17 1309.94 952.51 1357.02 952.51"/><polygon class="cls-1" points="1245.89 764.17 1245.89 811.26 1151.73 811.26 1151.73 999.59 1104.65 999.59 1104.65 811.26 1057.56 811.26 1057.56 764.17 1245.89 764.17"/><rect class="cls-1" x="1198.82" y="858.35" width="47.08" height="141.24"/><path class="cls-1" d="M1411.7,764.18h-47.09V999.59h47.09V905.42h47.07v94.17h47.09V764.18Zm47.07,94.17H1411.7V811.26h47.07Z"/><path class="cls-1" d="M779.93,1206.72c-147.61,4.44-272.91-107.26-285.24-254.3l25.71-2.15c11.19,133.37,124.85,234.68,258.76,230.65s241.26-112,244.41-245.79l25.8.61C1045.89,1083.25,927.54,1202.28,779.93,1206.72Z"/><g class="cls-4"><path class="cls-1" d="M494.65,951l7.94,264Z"/><rect class="cls-1" x="498.61" y="950.79" width="12.61" height="264.14" transform="translate(-32.33 15.67) rotate(-1.72)"/><rect class="cls-1" x="511.22" y="950.41" width="12.61" height="264.14" transform="translate(-32.31 16.05) rotate(-1.72)"/><rect class="cls-1" x="523.83" y="950.03" width="12.61" height="264.14" transform="translate(-32.29 16.43) rotate(-1.72)"/><rect class="cls-1" x="536.43" y="949.65" width="12.61" height="264.14" transform="translate(-32.28 16.81) rotate(-1.72)"/><rect class="cls-1" x="549.04" y="949.28" width="12.61" height="264.14" transform="translate(-32.26 17.19) rotate(-1.72)"/><rect class="cls-1" x="561.64" y="948.9" width="12.61" height="264.14" transform="translate(-32.24 17.56) rotate(-1.72)"/><rect class="cls-1" x="574.25" y="948.52" width="12.61" height="264.14" transform="translate(-32.23 17.94) rotate(-1.72)"/><rect class="cls-1" x="586.86" y="948.14" width="12.61" height="264.14" transform="translate(-32.21 18.32) rotate(-1.72)"/><rect class="cls-1" x="599.46" y="947.76" width="12.61" height="264.14" transform="translate(-32.19 18.7) rotate(-1.72)"/><rect class="cls-1" x="612.07" y="947.38" width="12.61" height="264.14" transform="translate(-32.17 19.08) rotate(-1.72)"/><rect class="cls-1" x="624.68" y="947" width="12.61" height="264.14" transform="translate(-32.16 19.46) rotate(-1.72)"/><rect class="cls-1" x="637.28" y="946.62" width="12.61" height="264.14" transform="translate(-32.14 19.84) rotate(-1.72)"/><rect class="cls-1" x="649.89" y="946.24" width="12.61" height="264.14" transform="translate(-32.12 20.22) rotate(-1.72)"/><rect class="cls-1" x="662.5" y="945.86" width="12.61" height="264.14" transform="translate(-32.11 20.6) rotate(-1.72)"/><rect class="cls-1" x="675.1" y="945.48" width="12.61" height="264.14" transform="translate(-32.09 20.97) rotate(-1.72)"/><rect class="cls-1" x="687.71" y="945.1" width="12.61" height="264.14" transform="translate(-32.07 21.35) rotate(-1.72)"/><rect class="cls-1" x="700.32" y="944.72" width="12.61" height="264.14" transform="translate(-32.05 21.73) rotate(-1.72)"/><rect class="cls-1" x="712.92" y="944.35" width="12.61" height="264.14" transform="translate(-32.04 22.11) rotate(-1.72)"/><rect class="cls-1" x="725.53" y="943.97" width="12.61" height="264.14" transform="translate(-32.02 22.49) rotate(-1.72)"/><rect class="cls-1" x="738.13" y="943.59" width="12.61" height="264.14" transform="translate(-32 22.87) rotate(-1.72)"/><rect class="cls-1" x="750.74" y="943.21" width="12.61" height="264.14" transform="translate(-31.99 23.25) rotate(-1.72)"/><rect class="cls-1" x="763.35" y="942.83" width="12.61" height="264.14" transform="translate(-31.97 23.63) rotate(-1.72)"/><rect class="cls-1" x="775.95" y="942.45" width="12.61" height="264.14" transform="translate(-31.95 24) rotate(-1.72)"/><rect class="cls-1" x="788.56" y="942.07" width="12.61" height="264.14" transform="translate(-31.93 24.38) rotate(-1.72)"/><rect class="cls-1" x="801.17" y="941.69" width="12.61" height="264.14" transform="translate(-31.92 24.76) rotate(-1.72)"/><rect class="cls-1" x="813.77" y="941.31" width="12.61" height="264.14" transform="translate(-31.9 25.14) rotate(-1.72)"/><rect class="cls-1" x="826.38" y="940.93" width="12.61" height="264.14" transform="translate(-31.88 25.52) rotate(-1.72)"/><rect class="cls-1" x="838.99" y="940.55" width="12.61" height="264.14" transform="translate(-31.87 25.9) rotate(-1.72)"/><rect class="cls-1" x="851.59" y="940.17" width="12.61" height="264.14" transform="translate(-31.85 26.28) rotate(-1.72)"/><rect class="cls-1" x="864.2" y="939.8" width="12.61" height="264.14" transform="translate(-31.83 26.66) rotate(-1.72)"/><rect class="cls-1" x="876.81" y="939.42" width="12.61" height="264.14" transform="translate(-31.82 27.04) rotate(-1.72)"/><rect class="cls-1" x="889.41" y="939.04" width="12.61" height="264.14" transform="translate(-31.8 27.41) rotate(-1.72)"/><rect class="cls-1" x="902.02" y="938.66" width="12.61" height="264.14" transform="translate(-31.78 27.79) rotate(-1.72)"/><rect class="cls-1" x="914.62" y="938.28" width="12.61" height="264.14" transform="translate(-31.76 28.17) rotate(-1.72)"/><rect class="cls-1" x="927.23" y="937.9" width="12.61" height="264.14" transform="translate(-31.75 28.55) rotate(-1.72)"/><rect class="cls-1" x="939.84" y="937.52" width="12.61" height="264.14" transform="translate(-31.73 28.93) rotate(-1.72)"/><rect class="cls-1" x="952.44" y="937.14" width="12.61" height="264.14" transform="translate(-31.71 29.31) rotate(-1.72)"/><rect class="cls-1" x="965.05" y="936.76" width="12.61" height="264.14" transform="translate(-31.7 29.69) rotate(-1.72)"/><rect class="cls-1" x="977.66" y="936.38" width="12.61" height="264.14" transform="translate(-31.68 30.07) rotate(-1.72)"/><rect class="cls-1" x="990.26" y="936" width="12.61" height="264.14" transform="translate(-31.66 30.44) rotate(-1.72)"/><rect class="cls-1" x="1002.87" y="935.62" width="12.61" height="264.14" transform="translate(-31.64 30.82) rotate(-1.72)"/><rect class="cls-1" x="1015.48" y="935.25" width="12.61" height="264.14" transform="translate(-31.63 31.2) rotate(-1.72)"/><rect class="cls-1" x="1028.08" y="934.87" width="12.61" height="264.14" transform="translate(-31.61 31.58) rotate(-1.72)"/><rect class="cls-1" x="1040.69" y="934.49" width="12.61" height="264.14" transform="translate(-31.59 31.96) rotate(-1.72)"/><path class="cls-1" d="M1057.27,1198.38l-7.94-264Z"/></g><path class="cls-1" d="M1022.74,907.67C1011.56,774.3,897.9,673,764,677S522.73,789,519.58,922.8l-25.8-.61c3.47-147.51,121.83-266.53,269.44-271s272.9,107.26,285.24,254.3Z"/><g class="cls-5"><path class="cls-1" d="M485.88,659.56l7.94,264Z"/><rect class="cls-1" x="489.85" y="659.31" width="12.61" height="264.14" transform="translate(-23.57 15.27) rotate(-1.72)"/><rect class="cls-1" x="502.45" y="658.93" width="12.61" height="264.14" transform="translate(-23.55 15.65) rotate(-1.72)"/><rect class="cls-1" x="515.06" y="658.55" width="12.61" height="264.14" transform="translate(-23.53 16.03) rotate(-1.72)"/><rect class="cls-1" x="527.66" y="658.17" width="12.61" height="264.14" transform="translate(-23.52 16.41) rotate(-1.72)"/><rect class="cls-1" x="540.27" y="657.79" width="12.61" height="264.14" transform="translate(-23.5 16.79) rotate(-1.72)"/><rect class="cls-1" x="552.88" y="657.41" width="12.61" height="264.14" transform="translate(-23.48 17.17) rotate(-1.72)"/><rect class="cls-1" x="565.48" y="657.03" width="12.61" height="264.14" transform="translate(-23.47 17.55) rotate(-1.72)"/><rect class="cls-1" x="578.09" y="656.65" width="12.61" height="264.14" transform="translate(-23.45 17.93) rotate(-1.72)"/><rect class="cls-1" x="590.7" y="656.27" width="12.61" height="264.14" transform="translate(-23.43 18.31) rotate(-1.72)"/><rect class="cls-1" x="603.3" y="655.9" width="12.61" height="264.14" transform="translate(-23.41 18.68) rotate(-1.72)"/><rect class="cls-1" x="615.91" y="655.52" width="12.61" height="264.14" transform="translate(-23.4 19.06) rotate(-1.72)"/><rect class="cls-1" x="628.52" y="655.14" width="12.61" height="264.14" transform="translate(-23.38 19.44) rotate(-1.72)"/><rect class="cls-1" x="641.12" y="654.76" width="12.61" height="264.14" transform="translate(-23.36 19.82) rotate(-1.72)"/><rect class="cls-1" x="653.73" y="654.38" width="12.61" height="264.14" transform="translate(-23.35 20.2) rotate(-1.72)"/><rect class="cls-1" x="666.34" y="654" width="12.61" height="264.14" transform="translate(-23.33 20.58) rotate(-1.72)"/><rect class="cls-1" x="678.94" y="653.62" width="12.61" height="264.14" transform="translate(-23.31 20.96) rotate(-1.72)"/><rect class="cls-1" x="691.55" y="653.24" width="12.61" height="264.14" transform="translate(-23.3 21.34) rotate(-1.72)"/><rect class="cls-1" x="704.15" y="652.86" width="12.61" height="264.14" transform="translate(-23.28 21.72) rotate(-1.72)"/><rect class="cls-1" x="716.76" y="652.48" width="12.61" height="264.14" transform="translate(-23.26 22.09) rotate(-1.72)"/><rect class="cls-1" x="729.37" y="652.1" width="12.61" height="264.14" transform="translate(-23.24 22.47) rotate(-1.72)"/><rect class="cls-1" x="741.97" y="651.72" width="12.61" height="264.14" transform="translate(-23.23 22.85) rotate(-1.72)"/><rect class="cls-1" x="754.58" y="651.34" width="12.61" height="264.14" transform="translate(-23.21 23.23) rotate(-1.72)"/><rect class="cls-1" x="767.19" y="650.97" width="12.61" height="264.14" transform="translate(-23.19 23.61) rotate(-1.72)"/><rect class="cls-1" x="779.79" y="650.59" width="12.61" height="264.14" transform="translate(-23.18 23.99) rotate(-1.72)"/><rect class="cls-1" x="792.4" y="650.21" width="12.61" height="264.14" transform="translate(-23.16 24.37) rotate(-1.72)"/><rect class="cls-1" x="805.01" y="649.83" width="12.61" height="264.14" transform="translate(-23.14 24.75) rotate(-1.72)"/><rect class="cls-1" x="817.61" y="649.45" width="12.61" height="264.14" transform="translate(-23.12 25.12) rotate(-1.72)"/><rect class="cls-1" x="830.22" y="649.07" width="12.61" height="264.14" transform="translate(-23.11 25.5) rotate(-1.72)"/><rect class="cls-1" x="842.82" y="648.69" width="12.61" height="264.14" transform="translate(-23.09 25.88) rotate(-1.72)"/><rect class="cls-1" x="855.43" y="648.31" width="12.61" height="264.14" transform="translate(-23.07 26.26) rotate(-1.72)"/><rect class="cls-1" x="868.04" y="647.93" width="12.61" height="264.14" transform="translate(-23.06 26.64) rotate(-1.72)"/><rect class="cls-1" x="880.64" y="647.55" width="12.61" height="264.14" transform="translate(-23.04 27.02) rotate(-1.72)"/><rect class="cls-1" x="893.25" y="647.17" width="12.61" height="264.14" transform="translate(-23.02 27.4) rotate(-1.72)"/><rect class="cls-1" x="905.86" y="646.79" width="12.61" height="264.14" transform="translate(-23 27.78) rotate(-1.72)"/><rect class="cls-1" x="918.46" y="646.42" width="12.61" height="264.14" transform="translate(-22.99 28.16) rotate(-1.72)"/><rect class="cls-1" x="931.07" y="646.04" width="12.61" height="264.14" transform="translate(-22.97 28.53) rotate(-1.72)"/><rect class="cls-1" x="943.68" y="645.66" width="12.61" height="264.14" transform="translate(-22.95 28.91) rotate(-1.72)"/><rect class="cls-1" x="956.28" y="645.28" width="12.61" height="264.14" transform="translate(-22.94 29.29) rotate(-1.72)"/><rect class="cls-1" x="968.89" y="644.9" width="12.61" height="264.14" transform="translate(-22.92 29.67) rotate(-1.72)"/><rect class="cls-1" x="981.5" y="644.52" width="12.61" height="264.14" transform="translate(-22.9 30.05) rotate(-1.72)"/><rect class="cls-1" x="994.1" y="644.14" width="12.61" height="264.14" transform="translate(-22.88 30.43) rotate(-1.72)"/><rect class="cls-1" x="1006.71" y="643.76" width="12.61" height="264.14" transform="translate(-22.87 30.81) rotate(-1.72)"/><rect class="cls-1" x="1019.31" y="643.38" width="12.61" height="264.14" transform="translate(-22.85 31.19) rotate(-1.72)"/><rect class="cls-1" x="1031.92" y="643" width="12.61" height="264.14" transform="translate(-22.83 31.56) rotate(-1.72)"/><path class="cls-1" d="M1048.5,906.89l-7.94-264Z"/></g></svg>